%TF.GenerationSoftware,KiCad,Pcbnew,10.0.3*%
%TF.CreationDate,2026-06-04T00:53:34-05:00*%
%TF.ProjectId,buffer_overflow,62756666-6572-45f6-9f76-6572666c6f77,v0.41*%
%TF.SameCoordinates,Original*%
%TF.FileFunction,Legend,Top*%
%TF.FilePolarity,Positive*%
%FSLAX46Y46*%
G04 Gerber Fmt 4.6, Leading zero omitted, Abs format (unit mm)*
G04 Created by KiCad (PCBNEW 10.0.3) date 2026-06-04 00:53:34*
%MOMM*%
%LPD*%
G01*
G04 APERTURE LIST*
%ADD10C,0.150000*%
%ADD11C,0.175000*%
%ADD12C,0.120000*%
G04 APERTURE END LIST*
D10*
X138635076Y-133257714D02*
X139396981Y-133257714D01*
X139016028Y-133638667D02*
X139016028Y-132876762D01*
X133304421Y-113057335D02*
X134066326Y-113057335D01*
X133685373Y-113438288D02*
X133685373Y-112676383D01*
D11*
X124966667Y-86605233D02*
X126033334Y-86605233D01*
X125500000Y-87138566D02*
X125500000Y-86071900D01*
D10*
X138833333Y-126859580D02*
X138785714Y-126907200D01*
X138785714Y-126907200D02*
X138642857Y-126954819D01*
X138642857Y-126954819D02*
X138547619Y-126954819D01*
X138547619Y-126954819D02*
X138404762Y-126907200D01*
X138404762Y-126907200D02*
X138309524Y-126811961D01*
X138309524Y-126811961D02*
X138261905Y-126716723D01*
X138261905Y-126716723D02*
X138214286Y-126526247D01*
X138214286Y-126526247D02*
X138214286Y-126383390D01*
X138214286Y-126383390D02*
X138261905Y-126192914D01*
X138261905Y-126192914D02*
X138309524Y-126097676D01*
X138309524Y-126097676D02*
X138404762Y-126002438D01*
X138404762Y-126002438D02*
X138547619Y-125954819D01*
X138547619Y-125954819D02*
X138642857Y-125954819D01*
X138642857Y-125954819D02*
X138785714Y-126002438D01*
X138785714Y-126002438D02*
X138833333Y-126050057D01*
X139690476Y-125954819D02*
X139500000Y-125954819D01*
X139500000Y-125954819D02*
X139404762Y-126002438D01*
X139404762Y-126002438D02*
X139357143Y-126050057D01*
X139357143Y-126050057D02*
X139261905Y-126192914D01*
X139261905Y-126192914D02*
X139214286Y-126383390D01*
X139214286Y-126383390D02*
X139214286Y-126764342D01*
X139214286Y-126764342D02*
X139261905Y-126859580D01*
X139261905Y-126859580D02*
X139309524Y-126907200D01*
X139309524Y-126907200D02*
X139404762Y-126954819D01*
X139404762Y-126954819D02*
X139595238Y-126954819D01*
X139595238Y-126954819D02*
X139690476Y-126907200D01*
X139690476Y-126907200D02*
X139738095Y-126859580D01*
X139738095Y-126859580D02*
X139785714Y-126764342D01*
X139785714Y-126764342D02*
X139785714Y-126526247D01*
X139785714Y-126526247D02*
X139738095Y-126431009D01*
X139738095Y-126431009D02*
X139690476Y-126383390D01*
X139690476Y-126383390D02*
X139595238Y-126335771D01*
X139595238Y-126335771D02*
X139404762Y-126335771D01*
X139404762Y-126335771D02*
X139309524Y-126383390D01*
X139309524Y-126383390D02*
X139261905Y-126431009D01*
X139261905Y-126431009D02*
X139214286Y-126526247D01*
X128748650Y-120824892D02*
X128415317Y-120348701D01*
X128177222Y-120824892D02*
X128177222Y-119824892D01*
X128177222Y-119824892D02*
X128558174Y-119824892D01*
X128558174Y-119824892D02*
X128653412Y-119872511D01*
X128653412Y-119872511D02*
X128701031Y-119920130D01*
X128701031Y-119920130D02*
X128748650Y-120015368D01*
X128748650Y-120015368D02*
X128748650Y-120158225D01*
X128748650Y-120158225D02*
X128701031Y-120253463D01*
X128701031Y-120253463D02*
X128653412Y-120301082D01*
X128653412Y-120301082D02*
X128558174Y-120348701D01*
X128558174Y-120348701D02*
X128177222Y-120348701D01*
X129081984Y-119824892D02*
X129748650Y-119824892D01*
X129748650Y-119824892D02*
X129320079Y-120824892D01*
X116320556Y-125540555D02*
X116272937Y-125588175D01*
X116272937Y-125588175D02*
X116130080Y-125635794D01*
X116130080Y-125635794D02*
X116034842Y-125635794D01*
X116034842Y-125635794D02*
X115891985Y-125588175D01*
X115891985Y-125588175D02*
X115796747Y-125492936D01*
X115796747Y-125492936D02*
X115749128Y-125397698D01*
X115749128Y-125397698D02*
X115701509Y-125207222D01*
X115701509Y-125207222D02*
X115701509Y-125064365D01*
X115701509Y-125064365D02*
X115749128Y-124873889D01*
X115749128Y-124873889D02*
X115796747Y-124778651D01*
X115796747Y-124778651D02*
X115891985Y-124683413D01*
X115891985Y-124683413D02*
X116034842Y-124635794D01*
X116034842Y-124635794D02*
X116130080Y-124635794D01*
X116130080Y-124635794D02*
X116272937Y-124683413D01*
X116272937Y-124683413D02*
X116320556Y-124731032D01*
X117177699Y-124969127D02*
X117177699Y-125635794D01*
X116939604Y-124588175D02*
X116701509Y-125302460D01*
X116701509Y-125302460D02*
X117320556Y-125302460D01*
X129166667Y-138707200D02*
X129309524Y-138754819D01*
X129309524Y-138754819D02*
X129547619Y-138754819D01*
X129547619Y-138754819D02*
X129642857Y-138707200D01*
X129642857Y-138707200D02*
X129690476Y-138659580D01*
X129690476Y-138659580D02*
X129738095Y-138564342D01*
X129738095Y-138564342D02*
X129738095Y-138469104D01*
X129738095Y-138469104D02*
X129690476Y-138373866D01*
X129690476Y-138373866D02*
X129642857Y-138326247D01*
X129642857Y-138326247D02*
X129547619Y-138278628D01*
X129547619Y-138278628D02*
X129357143Y-138231009D01*
X129357143Y-138231009D02*
X129261905Y-138183390D01*
X129261905Y-138183390D02*
X129214286Y-138135771D01*
X129214286Y-138135771D02*
X129166667Y-138040533D01*
X129166667Y-138040533D02*
X129166667Y-137945295D01*
X129166667Y-137945295D02*
X129214286Y-137850057D01*
X129214286Y-137850057D02*
X129261905Y-137802438D01*
X129261905Y-137802438D02*
X129357143Y-137754819D01*
X129357143Y-137754819D02*
X129595238Y-137754819D01*
X129595238Y-137754819D02*
X129738095Y-137802438D01*
X130071429Y-137754819D02*
X130309524Y-138754819D01*
X130309524Y-138754819D02*
X130500000Y-138040533D01*
X130500000Y-138040533D02*
X130690476Y-138754819D01*
X130690476Y-138754819D02*
X130928572Y-137754819D01*
X131833333Y-138754819D02*
X131261905Y-138754819D01*
X131547619Y-138754819D02*
X131547619Y-137754819D01*
X131547619Y-137754819D02*
X131452381Y-137897676D01*
X131452381Y-137897676D02*
X131357143Y-137992914D01*
X131357143Y-137992914D02*
X131261905Y-138040533D01*
X133954819Y-79738094D02*
X132954819Y-79738094D01*
X132954819Y-79738094D02*
X132954819Y-79499999D01*
X132954819Y-79499999D02*
X133002438Y-79357142D01*
X133002438Y-79357142D02*
X133097676Y-79261904D01*
X133097676Y-79261904D02*
X133192914Y-79214285D01*
X133192914Y-79214285D02*
X133383390Y-79166666D01*
X133383390Y-79166666D02*
X133526247Y-79166666D01*
X133526247Y-79166666D02*
X133716723Y-79214285D01*
X133716723Y-79214285D02*
X133811961Y-79261904D01*
X133811961Y-79261904D02*
X133907200Y-79357142D01*
X133907200Y-79357142D02*
X133954819Y-79499999D01*
X133954819Y-79499999D02*
X133954819Y-79738094D01*
X133288152Y-78309523D02*
X133954819Y-78309523D01*
X132907200Y-78547618D02*
X133621485Y-78785713D01*
X133621485Y-78785713D02*
X133621485Y-78166666D01*
X135604092Y-100476666D02*
X135127901Y-100809999D01*
X135604092Y-101048094D02*
X134604092Y-101048094D01*
X134604092Y-101048094D02*
X134604092Y-100667142D01*
X134604092Y-100667142D02*
X134651711Y-100571904D01*
X134651711Y-100571904D02*
X134699330Y-100524285D01*
X134699330Y-100524285D02*
X134794568Y-100476666D01*
X134794568Y-100476666D02*
X134937425Y-100476666D01*
X134937425Y-100476666D02*
X135032663Y-100524285D01*
X135032663Y-100524285D02*
X135080282Y-100571904D01*
X135080282Y-100571904D02*
X135127901Y-100667142D01*
X135127901Y-100667142D02*
X135127901Y-101048094D01*
X134604092Y-100143332D02*
X134604092Y-99524285D01*
X134604092Y-99524285D02*
X134985044Y-99857618D01*
X134985044Y-99857618D02*
X134985044Y-99714761D01*
X134985044Y-99714761D02*
X135032663Y-99619523D01*
X135032663Y-99619523D02*
X135080282Y-99571904D01*
X135080282Y-99571904D02*
X135175520Y-99524285D01*
X135175520Y-99524285D02*
X135413615Y-99524285D01*
X135413615Y-99524285D02*
X135508853Y-99571904D01*
X135508853Y-99571904D02*
X135556473Y-99619523D01*
X135556473Y-99619523D02*
X135604092Y-99714761D01*
X135604092Y-99714761D02*
X135604092Y-100000475D01*
X135604092Y-100000475D02*
X135556473Y-100095713D01*
X135556473Y-100095713D02*
X135508853Y-100143332D01*
X114104761Y-86712319D02*
X113771428Y-86236128D01*
X113533333Y-86712319D02*
X113533333Y-85712319D01*
X113533333Y-85712319D02*
X113914285Y-85712319D01*
X113914285Y-85712319D02*
X114009523Y-85759938D01*
X114009523Y-85759938D02*
X114057142Y-85807557D01*
X114057142Y-85807557D02*
X114104761Y-85902795D01*
X114104761Y-85902795D02*
X114104761Y-86045652D01*
X114104761Y-86045652D02*
X114057142Y-86140890D01*
X114057142Y-86140890D02*
X114009523Y-86188509D01*
X114009523Y-86188509D02*
X113914285Y-86236128D01*
X113914285Y-86236128D02*
X113533333Y-86236128D01*
X114390476Y-85712319D02*
X114723809Y-86712319D01*
X114723809Y-86712319D02*
X115057142Y-85712319D01*
X115914285Y-86712319D02*
X115342857Y-86712319D01*
X115628571Y-86712319D02*
X115628571Y-85712319D01*
X115628571Y-85712319D02*
X115533333Y-85855176D01*
X115533333Y-85855176D02*
X115438095Y-85950414D01*
X115438095Y-85950414D02*
X115342857Y-85998033D01*
X120803781Y-131789338D02*
X120327590Y-132122671D01*
X120803781Y-132360766D02*
X119803781Y-132360766D01*
X119803781Y-132360766D02*
X119803781Y-131979814D01*
X119803781Y-131979814D02*
X119851400Y-131884576D01*
X119851400Y-131884576D02*
X119899019Y-131836957D01*
X119899019Y-131836957D02*
X119994257Y-131789338D01*
X119994257Y-131789338D02*
X120137114Y-131789338D01*
X120137114Y-131789338D02*
X120232352Y-131836957D01*
X120232352Y-131836957D02*
X120279971Y-131884576D01*
X120279971Y-131884576D02*
X120327590Y-131979814D01*
X120327590Y-131979814D02*
X120327590Y-132360766D01*
X120137114Y-130932195D02*
X120803781Y-130932195D01*
X119756162Y-131170290D02*
X120470447Y-131408385D01*
X120470447Y-131408385D02*
X120470447Y-130789338D01*
X126040605Y-91122907D02*
X125992986Y-91170527D01*
X125992986Y-91170527D02*
X125850129Y-91218146D01*
X125850129Y-91218146D02*
X125754891Y-91218146D01*
X125754891Y-91218146D02*
X125612034Y-91170527D01*
X125612034Y-91170527D02*
X125516796Y-91075288D01*
X125516796Y-91075288D02*
X125469177Y-90980050D01*
X125469177Y-90980050D02*
X125421558Y-90789574D01*
X125421558Y-90789574D02*
X125421558Y-90646717D01*
X125421558Y-90646717D02*
X125469177Y-90456241D01*
X125469177Y-90456241D02*
X125516796Y-90361003D01*
X125516796Y-90361003D02*
X125612034Y-90265765D01*
X125612034Y-90265765D02*
X125754891Y-90218146D01*
X125754891Y-90218146D02*
X125850129Y-90218146D01*
X125850129Y-90218146D02*
X125992986Y-90265765D01*
X125992986Y-90265765D02*
X126040605Y-90313384D01*
X126421558Y-90313384D02*
X126469177Y-90265765D01*
X126469177Y-90265765D02*
X126564415Y-90218146D01*
X126564415Y-90218146D02*
X126802510Y-90218146D01*
X126802510Y-90218146D02*
X126897748Y-90265765D01*
X126897748Y-90265765D02*
X126945367Y-90313384D01*
X126945367Y-90313384D02*
X126992986Y-90408622D01*
X126992986Y-90408622D02*
X126992986Y-90503860D01*
X126992986Y-90503860D02*
X126945367Y-90646717D01*
X126945367Y-90646717D02*
X126373939Y-91218146D01*
X126373939Y-91218146D02*
X126992986Y-91218146D01*
X153523685Y-83480354D02*
X154237970Y-83480354D01*
X154237970Y-83480354D02*
X154380827Y-83527973D01*
X154380827Y-83527973D02*
X154476066Y-83623211D01*
X154476066Y-83623211D02*
X154523685Y-83766068D01*
X154523685Y-83766068D02*
X154523685Y-83861306D01*
X153523685Y-83099401D02*
X153523685Y-82480354D01*
X153523685Y-82480354D02*
X153904637Y-82813687D01*
X153904637Y-82813687D02*
X153904637Y-82670830D01*
X153904637Y-82670830D02*
X153952256Y-82575592D01*
X153952256Y-82575592D02*
X153999875Y-82527973D01*
X153999875Y-82527973D02*
X154095113Y-82480354D01*
X154095113Y-82480354D02*
X154333208Y-82480354D01*
X154333208Y-82480354D02*
X154428446Y-82527973D01*
X154428446Y-82527973D02*
X154476066Y-82575592D01*
X154476066Y-82575592D02*
X154523685Y-82670830D01*
X154523685Y-82670830D02*
X154523685Y-82956544D01*
X154523685Y-82956544D02*
X154476066Y-83051782D01*
X154476066Y-83051782D02*
X154428446Y-83099401D01*
X151081009Y-131738095D02*
X151128628Y-131595238D01*
X151128628Y-131595238D02*
X151176247Y-131547619D01*
X151176247Y-131547619D02*
X151271485Y-131500000D01*
X151271485Y-131500000D02*
X151414342Y-131500000D01*
X151414342Y-131500000D02*
X151509580Y-131547619D01*
X151509580Y-131547619D02*
X151557200Y-131595238D01*
X151557200Y-131595238D02*
X151604819Y-131690476D01*
X151604819Y-131690476D02*
X151604819Y-132071428D01*
X151604819Y-132071428D02*
X150604819Y-132071428D01*
X150604819Y-132071428D02*
X150604819Y-131738095D01*
X150604819Y-131738095D02*
X150652438Y-131642857D01*
X150652438Y-131642857D02*
X150700057Y-131595238D01*
X150700057Y-131595238D02*
X150795295Y-131547619D01*
X150795295Y-131547619D02*
X150890533Y-131547619D01*
X150890533Y-131547619D02*
X150985771Y-131595238D01*
X150985771Y-131595238D02*
X151033390Y-131642857D01*
X151033390Y-131642857D02*
X151081009Y-131738095D01*
X151081009Y-131738095D02*
X151081009Y-132071428D01*
X151319104Y-131119047D02*
X151319104Y-130642857D01*
X151604819Y-131214285D02*
X150604819Y-130880952D01*
X150604819Y-130880952D02*
X151604819Y-130547619D01*
X150604819Y-130357142D02*
X150604819Y-129785714D01*
X151604819Y-130071428D02*
X150604819Y-130071428D01*
X150604819Y-129595237D02*
X150604819Y-129023809D01*
X151604819Y-129309523D02*
X150604819Y-129309523D01*
X151223866Y-128690475D02*
X151223866Y-127928571D01*
X126454819Y-80738094D02*
X125454819Y-80738094D01*
X125454819Y-80738094D02*
X125454819Y-80499999D01*
X125454819Y-80499999D02*
X125502438Y-80357142D01*
X125502438Y-80357142D02*
X125597676Y-80261904D01*
X125597676Y-80261904D02*
X125692914Y-80214285D01*
X125692914Y-80214285D02*
X125883390Y-80166666D01*
X125883390Y-80166666D02*
X126026247Y-80166666D01*
X126026247Y-80166666D02*
X126216723Y-80214285D01*
X126216723Y-80214285D02*
X126311961Y-80261904D01*
X126311961Y-80261904D02*
X126407200Y-80357142D01*
X126407200Y-80357142D02*
X126454819Y-80499999D01*
X126454819Y-80499999D02*
X126454819Y-80738094D01*
X126454819Y-79214285D02*
X126454819Y-79785713D01*
X126454819Y-79499999D02*
X125454819Y-79499999D01*
X125454819Y-79499999D02*
X125597676Y-79595237D01*
X125597676Y-79595237D02*
X125692914Y-79690475D01*
X125692914Y-79690475D02*
X125740533Y-79785713D01*
X143271454Y-121795970D02*
X142271454Y-121795970D01*
X142271454Y-121795970D02*
X142271454Y-121557875D01*
X142271454Y-121557875D02*
X142319073Y-121415018D01*
X142319073Y-121415018D02*
X142414311Y-121319780D01*
X142414311Y-121319780D02*
X142509549Y-121272161D01*
X142509549Y-121272161D02*
X142700025Y-121224542D01*
X142700025Y-121224542D02*
X142842882Y-121224542D01*
X142842882Y-121224542D02*
X143033358Y-121272161D01*
X143033358Y-121272161D02*
X143128596Y-121319780D01*
X143128596Y-121319780D02*
X143223835Y-121415018D01*
X143223835Y-121415018D02*
X143271454Y-121557875D01*
X143271454Y-121557875D02*
X143271454Y-121795970D01*
X142271454Y-120891208D02*
X142271454Y-120272161D01*
X142271454Y-120272161D02*
X142652406Y-120605494D01*
X142652406Y-120605494D02*
X142652406Y-120462637D01*
X142652406Y-120462637D02*
X142700025Y-120367399D01*
X142700025Y-120367399D02*
X142747644Y-120319780D01*
X142747644Y-120319780D02*
X142842882Y-120272161D01*
X142842882Y-120272161D02*
X143080977Y-120272161D01*
X143080977Y-120272161D02*
X143176215Y-120319780D01*
X143176215Y-120319780D02*
X143223835Y-120367399D01*
X143223835Y-120367399D02*
X143271454Y-120462637D01*
X143271454Y-120462637D02*
X143271454Y-120748351D01*
X143271454Y-120748351D02*
X143223835Y-120843589D01*
X143223835Y-120843589D02*
X143176215Y-120891208D01*
X130333333Y-105584819D02*
X130000000Y-105108628D01*
X129761905Y-105584819D02*
X129761905Y-104584819D01*
X129761905Y-104584819D02*
X130142857Y-104584819D01*
X130142857Y-104584819D02*
X130238095Y-104632438D01*
X130238095Y-104632438D02*
X130285714Y-104680057D01*
X130285714Y-104680057D02*
X130333333Y-104775295D01*
X130333333Y-104775295D02*
X130333333Y-104918152D01*
X130333333Y-104918152D02*
X130285714Y-105013390D01*
X130285714Y-105013390D02*
X130238095Y-105061009D01*
X130238095Y-105061009D02*
X130142857Y-105108628D01*
X130142857Y-105108628D02*
X129761905Y-105108628D01*
X130809524Y-105584819D02*
X131000000Y-105584819D01*
X131000000Y-105584819D02*
X131095238Y-105537200D01*
X131095238Y-105537200D02*
X131142857Y-105489580D01*
X131142857Y-105489580D02*
X131238095Y-105346723D01*
X131238095Y-105346723D02*
X131285714Y-105156247D01*
X131285714Y-105156247D02*
X131285714Y-104775295D01*
X131285714Y-104775295D02*
X131238095Y-104680057D01*
X131238095Y-104680057D02*
X131190476Y-104632438D01*
X131190476Y-104632438D02*
X131095238Y-104584819D01*
X131095238Y-104584819D02*
X130904762Y-104584819D01*
X130904762Y-104584819D02*
X130809524Y-104632438D01*
X130809524Y-104632438D02*
X130761905Y-104680057D01*
X130761905Y-104680057D02*
X130714286Y-104775295D01*
X130714286Y-104775295D02*
X130714286Y-105013390D01*
X130714286Y-105013390D02*
X130761905Y-105108628D01*
X130761905Y-105108628D02*
X130809524Y-105156247D01*
X130809524Y-105156247D02*
X130904762Y-105203866D01*
X130904762Y-105203866D02*
X131095238Y-105203866D01*
X131095238Y-105203866D02*
X131190476Y-105156247D01*
X131190476Y-105156247D02*
X131238095Y-105108628D01*
X131238095Y-105108628D02*
X131285714Y-105013390D01*
X118268037Y-113650510D02*
X117791846Y-113983843D01*
X118268037Y-114221938D02*
X117268037Y-114221938D01*
X117268037Y-114221938D02*
X117268037Y-113840986D01*
X117268037Y-113840986D02*
X117315656Y-113745748D01*
X117315656Y-113745748D02*
X117363275Y-113698129D01*
X117363275Y-113698129D02*
X117458513Y-113650510D01*
X117458513Y-113650510D02*
X117601370Y-113650510D01*
X117601370Y-113650510D02*
X117696608Y-113698129D01*
X117696608Y-113698129D02*
X117744227Y-113745748D01*
X117744227Y-113745748D02*
X117791846Y-113840986D01*
X117791846Y-113840986D02*
X117791846Y-114221938D01*
X118268037Y-112698129D02*
X118268037Y-113269557D01*
X118268037Y-112983843D02*
X117268037Y-112983843D01*
X117268037Y-112983843D02*
X117410894Y-113079081D01*
X117410894Y-113079081D02*
X117506132Y-113174319D01*
X117506132Y-113174319D02*
X117553751Y-113269557D01*
X123795383Y-113650510D02*
X123319192Y-113983843D01*
X123795383Y-114221938D02*
X122795383Y-114221938D01*
X122795383Y-114221938D02*
X122795383Y-113840986D01*
X122795383Y-113840986D02*
X122843002Y-113745748D01*
X122843002Y-113745748D02*
X122890621Y-113698129D01*
X122890621Y-113698129D02*
X122985859Y-113650510D01*
X122985859Y-113650510D02*
X123128716Y-113650510D01*
X123128716Y-113650510D02*
X123223954Y-113698129D01*
X123223954Y-113698129D02*
X123271573Y-113745748D01*
X123271573Y-113745748D02*
X123319192Y-113840986D01*
X123319192Y-113840986D02*
X123319192Y-114221938D01*
X122795383Y-112793367D02*
X122795383Y-112983843D01*
X122795383Y-112983843D02*
X122843002Y-113079081D01*
X122843002Y-113079081D02*
X122890621Y-113126700D01*
X122890621Y-113126700D02*
X123033478Y-113221938D01*
X123033478Y-113221938D02*
X123223954Y-113269557D01*
X123223954Y-113269557D02*
X123604906Y-113269557D01*
X123604906Y-113269557D02*
X123700144Y-113221938D01*
X123700144Y-113221938D02*
X123747764Y-113174319D01*
X123747764Y-113174319D02*
X123795383Y-113079081D01*
X123795383Y-113079081D02*
X123795383Y-112888605D01*
X123795383Y-112888605D02*
X123747764Y-112793367D01*
X123747764Y-112793367D02*
X123700144Y-112745748D01*
X123700144Y-112745748D02*
X123604906Y-112698129D01*
X123604906Y-112698129D02*
X123366811Y-112698129D01*
X123366811Y-112698129D02*
X123271573Y-112745748D01*
X123271573Y-112745748D02*
X123223954Y-112793367D01*
X123223954Y-112793367D02*
X123176335Y-112888605D01*
X123176335Y-112888605D02*
X123176335Y-113079081D01*
X123176335Y-113079081D02*
X123223954Y-113174319D01*
X123223954Y-113174319D02*
X123271573Y-113221938D01*
X123271573Y-113221938D02*
X123366811Y-113269557D01*
X129738095Y-124519819D02*
X129738095Y-125329342D01*
X129738095Y-125329342D02*
X129785714Y-125424580D01*
X129785714Y-125424580D02*
X129833333Y-125472200D01*
X129833333Y-125472200D02*
X129928571Y-125519819D01*
X129928571Y-125519819D02*
X130119047Y-125519819D01*
X130119047Y-125519819D02*
X130214285Y-125472200D01*
X130214285Y-125472200D02*
X130261904Y-125424580D01*
X130261904Y-125424580D02*
X130309523Y-125329342D01*
X130309523Y-125329342D02*
X130309523Y-124519819D01*
X131309523Y-125519819D02*
X130738095Y-125519819D01*
X131023809Y-125519819D02*
X131023809Y-124519819D01*
X131023809Y-124519819D02*
X130928571Y-124662676D01*
X130928571Y-124662676D02*
X130833333Y-124757914D01*
X130833333Y-124757914D02*
X130738095Y-124805533D01*
X134713097Y-83665690D02*
X134665478Y-83713310D01*
X134665478Y-83713310D02*
X134522621Y-83760929D01*
X134522621Y-83760929D02*
X134427383Y-83760929D01*
X134427383Y-83760929D02*
X134284526Y-83713310D01*
X134284526Y-83713310D02*
X134189288Y-83618071D01*
X134189288Y-83618071D02*
X134141669Y-83522833D01*
X134141669Y-83522833D02*
X134094050Y-83332357D01*
X134094050Y-83332357D02*
X134094050Y-83189500D01*
X134094050Y-83189500D02*
X134141669Y-82999024D01*
X134141669Y-82999024D02*
X134189288Y-82903786D01*
X134189288Y-82903786D02*
X134284526Y-82808548D01*
X134284526Y-82808548D02*
X134427383Y-82760929D01*
X134427383Y-82760929D02*
X134522621Y-82760929D01*
X134522621Y-82760929D02*
X134665478Y-82808548D01*
X134665478Y-82808548D02*
X134713097Y-82856167D01*
X135665478Y-83760929D02*
X135094050Y-83760929D01*
X135379764Y-83760929D02*
X135379764Y-82760929D01*
X135379764Y-82760929D02*
X135284526Y-82903786D01*
X135284526Y-82903786D02*
X135189288Y-82999024D01*
X135189288Y-82999024D02*
X135094050Y-83046643D01*
X136833333Y-109609580D02*
X136785714Y-109657200D01*
X136785714Y-109657200D02*
X136642857Y-109704819D01*
X136642857Y-109704819D02*
X136547619Y-109704819D01*
X136547619Y-109704819D02*
X136404762Y-109657200D01*
X136404762Y-109657200D02*
X136309524Y-109561961D01*
X136309524Y-109561961D02*
X136261905Y-109466723D01*
X136261905Y-109466723D02*
X136214286Y-109276247D01*
X136214286Y-109276247D02*
X136214286Y-109133390D01*
X136214286Y-109133390D02*
X136261905Y-108942914D01*
X136261905Y-108942914D02*
X136309524Y-108847676D01*
X136309524Y-108847676D02*
X136404762Y-108752438D01*
X136404762Y-108752438D02*
X136547619Y-108704819D01*
X136547619Y-108704819D02*
X136642857Y-108704819D01*
X136642857Y-108704819D02*
X136785714Y-108752438D01*
X136785714Y-108752438D02*
X136833333Y-108800057D01*
X137166667Y-108704819D02*
X137785714Y-108704819D01*
X137785714Y-108704819D02*
X137452381Y-109085771D01*
X137452381Y-109085771D02*
X137595238Y-109085771D01*
X137595238Y-109085771D02*
X137690476Y-109133390D01*
X137690476Y-109133390D02*
X137738095Y-109181009D01*
X137738095Y-109181009D02*
X137785714Y-109276247D01*
X137785714Y-109276247D02*
X137785714Y-109514342D01*
X137785714Y-109514342D02*
X137738095Y-109609580D01*
X137738095Y-109609580D02*
X137690476Y-109657200D01*
X137690476Y-109657200D02*
X137595238Y-109704819D01*
X137595238Y-109704819D02*
X137309524Y-109704819D01*
X137309524Y-109704819D02*
X137214286Y-109657200D01*
X137214286Y-109657200D02*
X137166667Y-109609580D01*
X126334819Y-100476666D02*
X125858628Y-100809999D01*
X126334819Y-101048094D02*
X125334819Y-101048094D01*
X125334819Y-101048094D02*
X125334819Y-100667142D01*
X125334819Y-100667142D02*
X125382438Y-100571904D01*
X125382438Y-100571904D02*
X125430057Y-100524285D01*
X125430057Y-100524285D02*
X125525295Y-100476666D01*
X125525295Y-100476666D02*
X125668152Y-100476666D01*
X125668152Y-100476666D02*
X125763390Y-100524285D01*
X125763390Y-100524285D02*
X125811009Y-100571904D01*
X125811009Y-100571904D02*
X125858628Y-100667142D01*
X125858628Y-100667142D02*
X125858628Y-101048094D01*
X125430057Y-100095713D02*
X125382438Y-100048094D01*
X125382438Y-100048094D02*
X125334819Y-99952856D01*
X125334819Y-99952856D02*
X125334819Y-99714761D01*
X125334819Y-99714761D02*
X125382438Y-99619523D01*
X125382438Y-99619523D02*
X125430057Y-99571904D01*
X125430057Y-99571904D02*
X125525295Y-99524285D01*
X125525295Y-99524285D02*
X125620533Y-99524285D01*
X125620533Y-99524285D02*
X125763390Y-99571904D01*
X125763390Y-99571904D02*
X126334819Y-100143332D01*
X126334819Y-100143332D02*
X126334819Y-99524285D01*
X112534838Y-113650510D02*
X112058647Y-113983843D01*
X112534838Y-114221938D02*
X111534838Y-114221938D01*
X111534838Y-114221938D02*
X111534838Y-113840986D01*
X111534838Y-113840986D02*
X111582457Y-113745748D01*
X111582457Y-113745748D02*
X111630076Y-113698129D01*
X111630076Y-113698129D02*
X111725314Y-113650510D01*
X111725314Y-113650510D02*
X111868171Y-113650510D01*
X111868171Y-113650510D02*
X111963409Y-113698129D01*
X111963409Y-113698129D02*
X112011028Y-113745748D01*
X112011028Y-113745748D02*
X112058647Y-113840986D01*
X112058647Y-113840986D02*
X112058647Y-114221938D01*
X111534838Y-112745748D02*
X111534838Y-113221938D01*
X111534838Y-113221938D02*
X112011028Y-113269557D01*
X112011028Y-113269557D02*
X111963409Y-113221938D01*
X111963409Y-113221938D02*
X111915790Y-113126700D01*
X111915790Y-113126700D02*
X111915790Y-112888605D01*
X111915790Y-112888605D02*
X111963409Y-112793367D01*
X111963409Y-112793367D02*
X112011028Y-112745748D01*
X112011028Y-112745748D02*
X112106266Y-112698129D01*
X112106266Y-112698129D02*
X112344361Y-112698129D01*
X112344361Y-112698129D02*
X112439599Y-112745748D01*
X112439599Y-112745748D02*
X112487219Y-112793367D01*
X112487219Y-112793367D02*
X112534838Y-112888605D01*
X112534838Y-112888605D02*
X112534838Y-113126700D01*
X112534838Y-113126700D02*
X112487219Y-113221938D01*
X112487219Y-113221938D02*
X112439599Y-113269557D01*
X127954819Y-113238094D02*
X126954819Y-113238094D01*
X126954819Y-113238094D02*
X126954819Y-112999999D01*
X126954819Y-112999999D02*
X127002438Y-112857142D01*
X127002438Y-112857142D02*
X127097676Y-112761904D01*
X127097676Y-112761904D02*
X127192914Y-112714285D01*
X127192914Y-112714285D02*
X127383390Y-112666666D01*
X127383390Y-112666666D02*
X127526247Y-112666666D01*
X127526247Y-112666666D02*
X127716723Y-112714285D01*
X127716723Y-112714285D02*
X127811961Y-112761904D01*
X127811961Y-112761904D02*
X127907200Y-112857142D01*
X127907200Y-112857142D02*
X127954819Y-112999999D01*
X127954819Y-112999999D02*
X127954819Y-113238094D01*
X126954819Y-111761904D02*
X126954819Y-112238094D01*
X126954819Y-112238094D02*
X127431009Y-112285713D01*
X127431009Y-112285713D02*
X127383390Y-112238094D01*
X127383390Y-112238094D02*
X127335771Y-112142856D01*
X127335771Y-112142856D02*
X127335771Y-111904761D01*
X127335771Y-111904761D02*
X127383390Y-111809523D01*
X127383390Y-111809523D02*
X127431009Y-111761904D01*
X127431009Y-111761904D02*
X127526247Y-111714285D01*
X127526247Y-111714285D02*
X127764342Y-111714285D01*
X127764342Y-111714285D02*
X127859580Y-111761904D01*
X127859580Y-111761904D02*
X127907200Y-111809523D01*
X127907200Y-111809523D02*
X127954819Y-111904761D01*
X127954819Y-111904761D02*
X127954819Y-112142856D01*
X127954819Y-112142856D02*
X127907200Y-112238094D01*
X127907200Y-112238094D02*
X127859580Y-112285713D01*
X148241686Y-110005750D02*
X148194067Y-110053370D01*
X148194067Y-110053370D02*
X148051210Y-110100989D01*
X148051210Y-110100989D02*
X147955972Y-110100989D01*
X147955972Y-110100989D02*
X147813115Y-110053370D01*
X147813115Y-110053370D02*
X147717877Y-109958131D01*
X147717877Y-109958131D02*
X147670258Y-109862893D01*
X147670258Y-109862893D02*
X147622639Y-109672417D01*
X147622639Y-109672417D02*
X147622639Y-109529560D01*
X147622639Y-109529560D02*
X147670258Y-109339084D01*
X147670258Y-109339084D02*
X147717877Y-109243846D01*
X147717877Y-109243846D02*
X147813115Y-109148608D01*
X147813115Y-109148608D02*
X147955972Y-109100989D01*
X147955972Y-109100989D02*
X148051210Y-109100989D01*
X148051210Y-109100989D02*
X148194067Y-109148608D01*
X148194067Y-109148608D02*
X148241686Y-109196227D01*
X148575020Y-109100989D02*
X149241686Y-109100989D01*
X149241686Y-109100989D02*
X148813115Y-110100989D01*
X145704761Y-86712319D02*
X145371428Y-86236128D01*
X145133333Y-86712319D02*
X145133333Y-85712319D01*
X145133333Y-85712319D02*
X145514285Y-85712319D01*
X145514285Y-85712319D02*
X145609523Y-85759938D01*
X145609523Y-85759938D02*
X145657142Y-85807557D01*
X145657142Y-85807557D02*
X145704761Y-85902795D01*
X145704761Y-85902795D02*
X145704761Y-86045652D01*
X145704761Y-86045652D02*
X145657142Y-86140890D01*
X145657142Y-86140890D02*
X145609523Y-86188509D01*
X145609523Y-86188509D02*
X145514285Y-86236128D01*
X145514285Y-86236128D02*
X145133333Y-86236128D01*
X145990476Y-85712319D02*
X146323809Y-86712319D01*
X146323809Y-86712319D02*
X146657142Y-85712319D01*
X146942857Y-85807557D02*
X146990476Y-85759938D01*
X146990476Y-85759938D02*
X147085714Y-85712319D01*
X147085714Y-85712319D02*
X147323809Y-85712319D01*
X147323809Y-85712319D02*
X147419047Y-85759938D01*
X147419047Y-85759938D02*
X147466666Y-85807557D01*
X147466666Y-85807557D02*
X147514285Y-85902795D01*
X147514285Y-85902795D02*
X147514285Y-85998033D01*
X147514285Y-85998033D02*
X147466666Y-86140890D01*
X147466666Y-86140890D02*
X146895238Y-86712319D01*
X146895238Y-86712319D02*
X147514285Y-86712319D01*
X138747410Y-121224542D02*
X138271219Y-121557875D01*
X138747410Y-121795970D02*
X137747410Y-121795970D01*
X137747410Y-121795970D02*
X137747410Y-121415018D01*
X137747410Y-121415018D02*
X137795029Y-121319780D01*
X137795029Y-121319780D02*
X137842648Y-121272161D01*
X137842648Y-121272161D02*
X137937886Y-121224542D01*
X137937886Y-121224542D02*
X138080743Y-121224542D01*
X138080743Y-121224542D02*
X138175981Y-121272161D01*
X138175981Y-121272161D02*
X138223600Y-121319780D01*
X138223600Y-121319780D02*
X138271219Y-121415018D01*
X138271219Y-121415018D02*
X138271219Y-121795970D01*
X138175981Y-120653113D02*
X138128362Y-120748351D01*
X138128362Y-120748351D02*
X138080743Y-120795970D01*
X138080743Y-120795970D02*
X137985505Y-120843589D01*
X137985505Y-120843589D02*
X137937886Y-120843589D01*
X137937886Y-120843589D02*
X137842648Y-120795970D01*
X137842648Y-120795970D02*
X137795029Y-120748351D01*
X137795029Y-120748351D02*
X137747410Y-120653113D01*
X137747410Y-120653113D02*
X137747410Y-120462637D01*
X137747410Y-120462637D02*
X137795029Y-120367399D01*
X137795029Y-120367399D02*
X137842648Y-120319780D01*
X137842648Y-120319780D02*
X137937886Y-120272161D01*
X137937886Y-120272161D02*
X137985505Y-120272161D01*
X137985505Y-120272161D02*
X138080743Y-120319780D01*
X138080743Y-120319780D02*
X138128362Y-120367399D01*
X138128362Y-120367399D02*
X138175981Y-120462637D01*
X138175981Y-120462637D02*
X138175981Y-120653113D01*
X138175981Y-120653113D02*
X138223600Y-120748351D01*
X138223600Y-120748351D02*
X138271219Y-120795970D01*
X138271219Y-120795970D02*
X138366457Y-120843589D01*
X138366457Y-120843589D02*
X138556933Y-120843589D01*
X138556933Y-120843589D02*
X138652171Y-120795970D01*
X138652171Y-120795970D02*
X138699791Y-120748351D01*
X138699791Y-120748351D02*
X138747410Y-120653113D01*
X138747410Y-120653113D02*
X138747410Y-120462637D01*
X138747410Y-120462637D02*
X138699791Y-120367399D01*
X138699791Y-120367399D02*
X138652171Y-120319780D01*
X138652171Y-120319780D02*
X138556933Y-120272161D01*
X138556933Y-120272161D02*
X138366457Y-120272161D01*
X138366457Y-120272161D02*
X138271219Y-120319780D01*
X138271219Y-120319780D02*
X138223600Y-120367399D01*
X138223600Y-120367399D02*
X138175981Y-120462637D01*
X147322050Y-121795970D02*
X146322050Y-121795970D01*
X146322050Y-121795970D02*
X146322050Y-121557875D01*
X146322050Y-121557875D02*
X146369669Y-121415018D01*
X146369669Y-121415018D02*
X146464907Y-121319780D01*
X146464907Y-121319780D02*
X146560145Y-121272161D01*
X146560145Y-121272161D02*
X146750621Y-121224542D01*
X146750621Y-121224542D02*
X146893478Y-121224542D01*
X146893478Y-121224542D02*
X147083954Y-121272161D01*
X147083954Y-121272161D02*
X147179192Y-121319780D01*
X147179192Y-121319780D02*
X147274431Y-121415018D01*
X147274431Y-121415018D02*
X147322050Y-121557875D01*
X147322050Y-121557875D02*
X147322050Y-121795970D01*
X146417288Y-120843589D02*
X146369669Y-120795970D01*
X146369669Y-120795970D02*
X146322050Y-120700732D01*
X146322050Y-120700732D02*
X146322050Y-120462637D01*
X146322050Y-120462637D02*
X146369669Y-120367399D01*
X146369669Y-120367399D02*
X146417288Y-120319780D01*
X146417288Y-120319780D02*
X146512526Y-120272161D01*
X146512526Y-120272161D02*
X146607764Y-120272161D01*
X146607764Y-120272161D02*
X146750621Y-120319780D01*
X146750621Y-120319780D02*
X147322050Y-120891208D01*
X147322050Y-120891208D02*
X147322050Y-120272161D01*
X121454819Y-69833333D02*
X122169104Y-69833333D01*
X122169104Y-69833333D02*
X122311961Y-69880952D01*
X122311961Y-69880952D02*
X122407200Y-69976190D01*
X122407200Y-69976190D02*
X122454819Y-70119047D01*
X122454819Y-70119047D02*
X122454819Y-70214285D01*
X121550057Y-69404761D02*
X121502438Y-69357142D01*
X121502438Y-69357142D02*
X121454819Y-69261904D01*
X121454819Y-69261904D02*
X121454819Y-69023809D01*
X121454819Y-69023809D02*
X121502438Y-68928571D01*
X121502438Y-68928571D02*
X121550057Y-68880952D01*
X121550057Y-68880952D02*
X121645295Y-68833333D01*
X121645295Y-68833333D02*
X121740533Y-68833333D01*
X121740533Y-68833333D02*
X121883390Y-68880952D01*
X121883390Y-68880952D02*
X122454819Y-69452380D01*
X122454819Y-69452380D02*
X122454819Y-68833333D01*
X123954819Y-61333333D02*
X124669104Y-61333333D01*
X124669104Y-61333333D02*
X124811961Y-61380952D01*
X124811961Y-61380952D02*
X124907200Y-61476190D01*
X124907200Y-61476190D02*
X124954819Y-61619047D01*
X124954819Y-61619047D02*
X124954819Y-61714285D01*
X124954819Y-60333333D02*
X124954819Y-60904761D01*
X124954819Y-60619047D02*
X123954819Y-60619047D01*
X123954819Y-60619047D02*
X124097676Y-60714285D01*
X124097676Y-60714285D02*
X124192914Y-60809523D01*
X124192914Y-60809523D02*
X124240533Y-60904761D01*
X128748650Y-116240478D02*
X128701031Y-116288098D01*
X128701031Y-116288098D02*
X128558174Y-116335717D01*
X128558174Y-116335717D02*
X128462936Y-116335717D01*
X128462936Y-116335717D02*
X128320079Y-116288098D01*
X128320079Y-116288098D02*
X128224841Y-116192859D01*
X128224841Y-116192859D02*
X128177222Y-116097621D01*
X128177222Y-116097621D02*
X128129603Y-115907145D01*
X128129603Y-115907145D02*
X128129603Y-115764288D01*
X128129603Y-115764288D02*
X128177222Y-115573812D01*
X128177222Y-115573812D02*
X128224841Y-115478574D01*
X128224841Y-115478574D02*
X128320079Y-115383336D01*
X128320079Y-115383336D02*
X128462936Y-115335717D01*
X128462936Y-115335717D02*
X128558174Y-115335717D01*
X128558174Y-115335717D02*
X128701031Y-115383336D01*
X128701031Y-115383336D02*
X128748650Y-115430955D01*
X129653412Y-115335717D02*
X129177222Y-115335717D01*
X129177222Y-115335717D02*
X129129603Y-115811907D01*
X129129603Y-115811907D02*
X129177222Y-115764288D01*
X129177222Y-115764288D02*
X129272460Y-115716669D01*
X129272460Y-115716669D02*
X129510555Y-115716669D01*
X129510555Y-115716669D02*
X129605793Y-115764288D01*
X129605793Y-115764288D02*
X129653412Y-115811907D01*
X129653412Y-115811907D02*
X129701031Y-115907145D01*
X129701031Y-115907145D02*
X129701031Y-116145240D01*
X129701031Y-116145240D02*
X129653412Y-116240478D01*
X129653412Y-116240478D02*
X129605793Y-116288098D01*
X129605793Y-116288098D02*
X129510555Y-116335717D01*
X129510555Y-116335717D02*
X129272460Y-116335717D01*
X129272460Y-116335717D02*
X129177222Y-116288098D01*
X129177222Y-116288098D02*
X129129603Y-116240478D01*
X144581009Y-131738095D02*
X144628628Y-131595238D01*
X144628628Y-131595238D02*
X144676247Y-131547619D01*
X144676247Y-131547619D02*
X144771485Y-131500000D01*
X144771485Y-131500000D02*
X144914342Y-131500000D01*
X144914342Y-131500000D02*
X145009580Y-131547619D01*
X145009580Y-131547619D02*
X145057200Y-131595238D01*
X145057200Y-131595238D02*
X145104819Y-131690476D01*
X145104819Y-131690476D02*
X145104819Y-132071428D01*
X145104819Y-132071428D02*
X144104819Y-132071428D01*
X144104819Y-132071428D02*
X144104819Y-131738095D01*
X144104819Y-131738095D02*
X144152438Y-131642857D01*
X144152438Y-131642857D02*
X144200057Y-131595238D01*
X144200057Y-131595238D02*
X144295295Y-131547619D01*
X144295295Y-131547619D02*
X144390533Y-131547619D01*
X144390533Y-131547619D02*
X144485771Y-131595238D01*
X144485771Y-131595238D02*
X144533390Y-131642857D01*
X144533390Y-131642857D02*
X144581009Y-131738095D01*
X144581009Y-131738095D02*
X144581009Y-132071428D01*
X144819104Y-131119047D02*
X144819104Y-130642857D01*
X145104819Y-131214285D02*
X144104819Y-130880952D01*
X144104819Y-130880952D02*
X145104819Y-130547619D01*
X144104819Y-130357142D02*
X144104819Y-129785714D01*
X145104819Y-130071428D02*
X144104819Y-130071428D01*
X144104819Y-129595237D02*
X144104819Y-129023809D01*
X145104819Y-129309523D02*
X144104819Y-129309523D01*
X144723866Y-128690475D02*
X144723866Y-127928571D01*
X145104819Y-128309523D02*
X144342914Y-128309523D01*
%TO.C,C6*%
D12*
X141620000Y-130000000D02*
G75*
G02*
X136380000Y-130000000I-2620000J0D01*
G01*
X136380000Y-130000000D02*
G75*
G02*
X141620000Y-130000000I2620000J0D01*
G01*
%TO.C,R7*%
X125780916Y-121305303D02*
X125780916Y-121635303D01*
X125780916Y-124045303D02*
X125780916Y-123715303D01*
X132320916Y-121305303D02*
X125780916Y-121305303D01*
X132320916Y-121635303D02*
X132320916Y-121305303D01*
X132320916Y-123715303D02*
X132320916Y-124045303D01*
X132320916Y-124045303D02*
X125780916Y-124045303D01*
%TO.C,C4*%
X111367223Y-121310975D02*
X121607223Y-121310975D01*
X111367223Y-124050975D02*
X111367223Y-121310975D01*
X121607223Y-121310975D02*
X121607223Y-124050975D01*
X121607223Y-124050975D02*
X111367223Y-124050975D01*
%TO.C,SW1*%
X121850000Y-139350000D02*
X139150000Y-139350000D01*
X139150000Y-156650000D01*
X121850000Y-156650000D01*
X121850000Y-139350000D01*
%TO.C,D4*%
X129264000Y-80560000D02*
X129420000Y-80560000D01*
X131580000Y-80560000D02*
X131736000Y-80560000D01*
X129264484Y-80560000D02*
G75*
G02*
X129420000Y-77328563I1235516J1560000D01*
G01*
X129420000Y-80040961D02*
G75*
G02*
X129420000Y-77959039I1080000J1040961D01*
G01*
X131580000Y-77959039D02*
G75*
G02*
X131580000Y-80040961I-1080000J-1040961D01*
G01*
X131580000Y-77328563D02*
G75*
G02*
X131735516Y-80560000I-1080000J-1671437D01*
G01*
%TO.C,R3*%
X131380000Y-103580000D02*
X131380000Y-97040000D01*
X131710000Y-103580000D02*
X131380000Y-103580000D01*
X133790000Y-103580000D02*
X134120000Y-103580000D01*
X134120000Y-103580000D02*
X134120000Y-97040000D01*
X131380000Y-97040000D02*
X131710000Y-97040000D01*
X134120000Y-97040000D02*
X133790000Y-97040000D01*
%TO.C,RV1*%
X123050000Y-95507500D02*
X122890000Y-97136500D01*
X122890000Y-97136500D02*
X122414000Y-98702500D01*
X122414000Y-98702500D02*
X121643000Y-100146500D01*
X121643000Y-100146500D02*
X120604000Y-101411500D01*
X120604000Y-101411500D02*
X119339000Y-102450500D01*
X119339000Y-102450500D02*
X117895000Y-103221500D01*
X117895000Y-103221500D02*
X116329000Y-103697500D01*
X116329000Y-103697500D02*
X114700000Y-103857500D01*
X114700000Y-103857500D02*
X113071000Y-103697500D01*
X113071000Y-103697500D02*
X111505000Y-103221500D01*
X111505000Y-103221500D02*
X110061000Y-102450500D01*
X110061000Y-102450500D02*
X108796000Y-101411500D01*
X108796000Y-101411500D02*
X107757000Y-100146500D01*
X107757000Y-100146500D02*
X106986000Y-98702500D01*
X106986000Y-98702500D02*
X106510000Y-97136500D01*
X106510000Y-97136500D02*
X106350000Y-95507500D01*
X106350000Y-95507500D02*
X106510000Y-93878500D01*
X106510000Y-93878500D02*
X106986000Y-92312500D01*
X106986000Y-92312500D02*
X107757000Y-90868500D01*
X107757000Y-90868500D02*
X108796000Y-89603500D01*
X108796000Y-89603500D02*
X110061000Y-88564500D01*
X110061000Y-88564500D02*
X111505000Y-87793500D01*
X111505000Y-87793500D02*
X113071000Y-87317500D01*
X113071000Y-87317500D02*
X114700000Y-87157500D01*
X114700000Y-87157500D02*
X116329000Y-87317500D01*
X116329000Y-87317500D02*
X117895000Y-87793500D01*
X117895000Y-87793500D02*
X119339000Y-88564500D01*
X119339000Y-88564500D02*
X120604000Y-89603500D01*
X120604000Y-89603500D02*
X121643000Y-90868500D01*
X121643000Y-90868500D02*
X122414000Y-92312500D01*
X122414000Y-92312500D02*
X122890000Y-93878500D01*
X122890000Y-93878500D02*
X123050000Y-95507500D01*
X108700000Y-108207500D02*
X110700000Y-108207500D01*
%TO.C,R4*%
X123870000Y-127896200D02*
X123870000Y-134436200D01*
X123540000Y-127896200D02*
X123870000Y-127896200D01*
X121460000Y-127896200D02*
X121130000Y-127896200D01*
X121130000Y-127896200D02*
X121130000Y-134436200D01*
X123870000Y-134436200D02*
X123540000Y-134436200D01*
X121130000Y-134436200D02*
X121460000Y-134436200D01*
%TO.C,C2*%
X125380000Y-91630000D02*
X135620000Y-91630000D01*
X125380000Y-94370000D02*
X125380000Y-91630000D01*
X135620000Y-91630000D02*
X135620000Y-94370000D01*
X135620000Y-94370000D02*
X125380000Y-94370000D01*
%TO.C,J3*%
X137060000Y-83970000D02*
X137060000Y-59430000D01*
X153050000Y-83970000D02*
X137060000Y-83970000D01*
X153050000Y-83970000D02*
X153050000Y-59430000D01*
X137060000Y-59430000D02*
X153050000Y-59430000D01*
X140880000Y-50530000D02*
X140880000Y-59430000D01*
X152120000Y-50530000D02*
X152120000Y-59430000D01*
X152120000Y-50530000D02*
X140880000Y-50530000D01*
%TO.C,D1*%
X123500000Y-83740000D02*
X123500000Y-82720000D01*
X122030000Y-81940000D02*
X124970000Y-81940000D01*
X122030000Y-81820000D02*
X124970000Y-81820000D01*
X122030000Y-81700000D02*
X124970000Y-81700000D01*
X123500000Y-76260000D02*
X123500000Y-77280000D01*
X122030000Y-77280000D02*
X124970000Y-77280000D01*
X124970000Y-82720000D01*
X122030000Y-82720000D01*
X122030000Y-77280000D01*
%TO.C,D3*%
X144791667Y-118230000D02*
X144791667Y-118880000D01*
X145911667Y-119480000D02*
X143671667Y-119480000D01*
X145911667Y-119600000D02*
X143671667Y-119600000D01*
X145911667Y-119720000D02*
X143671667Y-119720000D01*
X144791667Y-123770000D02*
X144791667Y-123120000D01*
X143671667Y-118880000D02*
X145911667Y-118880000D01*
X145911667Y-123120000D01*
X143671667Y-123120000D01*
X143671667Y-118880000D01*
%TO.C,R9*%
X127230000Y-106130000D02*
X133770000Y-106130000D01*
X127230000Y-106460000D02*
X127230000Y-106130000D01*
X127230000Y-108540000D02*
X127230000Y-108870000D01*
X127230000Y-108870000D02*
X133770000Y-108870000D01*
X133770000Y-106130000D02*
X133770000Y-106460000D01*
X133770000Y-108870000D02*
X133770000Y-108540000D01*
%TO.C,R1*%
X116725010Y-110230000D02*
X116725010Y-116770000D01*
X116395010Y-110230000D02*
X116725010Y-110230000D01*
X114315010Y-110230000D02*
X113985010Y-110230000D01*
X113985010Y-110230000D02*
X113985010Y-116770000D01*
X116725010Y-116770000D02*
X116395010Y-116770000D01*
X113985010Y-116770000D02*
X114315010Y-116770000D01*
%TO.C,R6*%
X119630000Y-116770000D02*
X119630000Y-110230000D01*
X119960000Y-116770000D02*
X119630000Y-116770000D01*
X122040000Y-116770000D02*
X122370000Y-116770000D01*
X122370000Y-116770000D02*
X122370000Y-110230000D01*
X119630000Y-110230000D02*
X119960000Y-110230000D01*
X122370000Y-110230000D02*
X122040000Y-110230000D01*
%TO.C,U1*%
X127850000Y-126065000D02*
X127850000Y-136345000D01*
X127850000Y-136345000D02*
X133150000Y-136345000D01*
X129500000Y-126065000D02*
X127850000Y-126065000D01*
X133150000Y-126065000D02*
X131500000Y-126065000D01*
X133150000Y-136345000D02*
X133150000Y-126065000D01*
X131500000Y-126065000D02*
G75*
G02*
X129500000Y-126065000I-1000000J0D01*
G01*
%TO.C,C1*%
X134621639Y-86500000D02*
G75*
G02*
X126381639Y-86500000I-4120000J0D01*
G01*
X126381639Y-86500000D02*
G75*
G02*
X134621639Y-86500000I4120000J0D01*
G01*
%TO.C,C3*%
X139620000Y-113000000D02*
G75*
G02*
X134380000Y-113000000I-2620000J0D01*
G01*
X134380000Y-113000000D02*
G75*
G02*
X139620000Y-113000000I2620000J0D01*
G01*
%TO.C,R2*%
X126880000Y-103580000D02*
X126880000Y-97040000D01*
X127210000Y-103580000D02*
X126880000Y-103580000D01*
X129290000Y-103580000D02*
X129620000Y-103580000D01*
X129620000Y-103580000D02*
X129620000Y-97040000D01*
X126880000Y-97040000D02*
X127210000Y-97040000D01*
X129620000Y-97040000D02*
X129290000Y-97040000D01*
%TO.C,R5*%
X111080019Y-110213844D02*
X111080019Y-116753844D01*
X110750019Y-110213844D02*
X111080019Y-110213844D01*
X108670019Y-110213844D02*
X108340019Y-110213844D01*
X108340019Y-110213844D02*
X108340019Y-116753844D01*
X111080019Y-116753844D02*
X110750019Y-116753844D01*
X108340019Y-116753844D02*
X108670019Y-116753844D01*
%TO.C,D5*%
X128940000Y-111264000D02*
X128940000Y-111420000D01*
X128940000Y-113580000D02*
X128940000Y-113736000D01*
X128940000Y-111264484D02*
G75*
G02*
X132171437Y-111420000I1560000J-1235516D01*
G01*
X129459039Y-111420000D02*
G75*
G02*
X131540961Y-111420000I1040961J-1080000D01*
G01*
X131540961Y-113580000D02*
G75*
G02*
X129459039Y-113580000I-1040961J1080000D01*
G01*
X132171437Y-113580000D02*
G75*
G02*
X128940000Y-113735516I-1671437J1080000D01*
G01*
%TO.C,C7*%
X143288353Y-110776170D02*
X153528353Y-110776170D01*
X143288353Y-113516170D02*
X143288353Y-110776170D01*
X153528353Y-110776170D02*
X153528353Y-113516170D01*
X153528353Y-113516170D02*
X143288353Y-113516170D01*
%TO.C,RV2*%
X154650000Y-95507500D02*
X154490000Y-97136500D01*
X154490000Y-97136500D02*
X154014000Y-98702500D01*
X154014000Y-98702500D02*
X153243000Y-100146500D01*
X153243000Y-100146500D02*
X152204000Y-101411500D01*
X152204000Y-101411500D02*
X150939000Y-102450500D01*
X150939000Y-102450500D02*
X149495000Y-103221500D01*
X149495000Y-103221500D02*
X147929000Y-103697500D01*
X147929000Y-103697500D02*
X146300000Y-103857500D01*
X146300000Y-103857500D02*
X144671000Y-103697500D01*
X144671000Y-103697500D02*
X143105000Y-103221500D01*
X143105000Y-103221500D02*
X141661000Y-102450500D01*
X141661000Y-102450500D02*
X140396000Y-101411500D01*
X140396000Y-101411500D02*
X139357000Y-100146500D01*
X139357000Y-100146500D02*
X138586000Y-98702500D01*
X138586000Y-98702500D02*
X138110000Y-97136500D01*
X138110000Y-97136500D02*
X137950000Y-95507500D01*
X137950000Y-95507500D02*
X138110000Y-93878500D01*
X138110000Y-93878500D02*
X138586000Y-92312500D01*
X138586000Y-92312500D02*
X139357000Y-90868500D01*
X139357000Y-90868500D02*
X140396000Y-89603500D01*
X140396000Y-89603500D02*
X141661000Y-88564500D01*
X141661000Y-88564500D02*
X143105000Y-87793500D01*
X143105000Y-87793500D02*
X144671000Y-87317500D01*
X144671000Y-87317500D02*
X146300000Y-87157500D01*
X146300000Y-87157500D02*
X147929000Y-87317500D01*
X147929000Y-87317500D02*
X149495000Y-87793500D01*
X149495000Y-87793500D02*
X150939000Y-88564500D01*
X150939000Y-88564500D02*
X152204000Y-89603500D01*
X152204000Y-89603500D02*
X153243000Y-90868500D01*
X153243000Y-90868500D02*
X154014000Y-92312500D01*
X154014000Y-92312500D02*
X154490000Y-93878500D01*
X154490000Y-93878500D02*
X154650000Y-95507500D01*
X140300000Y-108207500D02*
X142300000Y-108207500D01*
%TO.C,R8*%
X141870000Y-117730000D02*
X141870000Y-124270000D01*
X141540000Y-117730000D02*
X141870000Y-117730000D01*
X139460000Y-117730000D02*
X139130000Y-117730000D01*
X139130000Y-117730000D02*
X139130000Y-124270000D01*
X141870000Y-124270000D02*
X141540000Y-124270000D01*
X139130000Y-124270000D02*
X139460000Y-124270000D01*
%TO.C,D2*%
X148833333Y-123770000D02*
X148833333Y-123120000D01*
X147713333Y-122520000D02*
X149953333Y-122520000D01*
X147713333Y-122400000D02*
X149953333Y-122400000D01*
X147713333Y-122280000D02*
X149953333Y-122280000D01*
X148833333Y-118230000D02*
X148833333Y-118880000D01*
X147713333Y-118880000D02*
X149953333Y-118880000D01*
X149953333Y-123120000D01*
X147713333Y-123120000D01*
X147713333Y-118880000D01*
%TO.C,J2*%
X105060000Y-83970000D02*
X105060000Y-59430000D01*
X121050000Y-83970000D02*
X105060000Y-83970000D01*
X121050000Y-83970000D02*
X121050000Y-59430000D01*
X105060000Y-59430000D02*
X121050000Y-59430000D01*
X108880000Y-50530000D02*
X108880000Y-59430000D01*
X120120000Y-50530000D02*
X120120000Y-59430000D01*
X120120000Y-50530000D02*
X108880000Y-50530000D01*
%TO.C,J1*%
X135400000Y-74300000D02*
X135400000Y-73000000D01*
X135100000Y-74000000D02*
X133100000Y-74000000D01*
X135100000Y-59500000D02*
X135100000Y-74000000D01*
X133700000Y-74300000D02*
X135400000Y-74300000D01*
X127900000Y-74000000D02*
X125900000Y-74000000D01*
X125900000Y-74000000D02*
X125900000Y-72700000D01*
X125900000Y-68100000D02*
X125900000Y-59500000D01*
X125900000Y-59500000D02*
X135100000Y-59500000D01*
%TO.C,C5*%
X134120000Y-119370000D02*
X123880000Y-119370000D01*
X134120000Y-116630000D02*
X134120000Y-119370000D01*
X123880000Y-119370000D02*
X123880000Y-116630000D01*
X123880000Y-116630000D02*
X134120000Y-116630000D01*
%TD*%
M02*
