%TF.GenerationSoftware,KiCad,Pcbnew,10.0.3*%
%TF.CreationDate,2026-06-04T00:53:34-05:00*%
%TF.ProjectId,buffer_overflow,62756666-6572-45f6-9f76-6572666c6f77,v0.41*%
%TF.SameCoordinates,Original*%
%TF.FileFunction,Copper,L1,Top*%
%TF.FilePolarity,Positive*%
%FSLAX46Y46*%
G04 Gerber Fmt 4.6, Leading zero omitted, Abs format (unit mm)*
G04 Created by KiCad (PCBNEW 10.0.3) date 2026-06-04 00:53:34*
%MOMM*%
%LPD*%
G01*
G04 APERTURE LIST*
G04 Aperture macros list*
%AMRoundRect*
0 Rectangle with rounded corners*
0 $1 Rounding radius*
0 $2 $3 $4 $5 $6 $7 $8 $9 X,Y pos of 4 corners*
0 Add a 4 corners polygon primitive as box body*
4,1,4,$2,$3,$4,$5,$6,$7,$8,$9,$2,$3,0*
0 Add four circle primitives for the rounded corners*
1,1,$1+$1,$2,$3*
1,1,$1+$1,$4,$5*
1,1,$1+$1,$6,$7*
1,1,$1+$1,$8,$9*
0 Add four rect primitives between the rounded corners*
20,1,$1+$1,$2,$3,$4,$5,0*
20,1,$1+$1,$4,$5,$6,$7,0*
20,1,$1+$1,$6,$7,$8,$9,0*
20,1,$1+$1,$8,$9,$2,$3,0*%
G04 Aperture macros list end*
%TA.AperFunction,ComponentPad*%
%ADD10C,1.200000*%
%TD*%
%TA.AperFunction,ComponentPad*%
%ADD11C,1.600000*%
%TD*%
%TA.AperFunction,ComponentPad*%
%ADD12C,2.000000*%
%TD*%
%TA.AperFunction,ComponentPad*%
%ADD13R,2.600000X2.600000*%
%TD*%
%TA.AperFunction,ComponentPad*%
%ADD14C,2.600000*%
%TD*%
%TA.AperFunction,ComponentPad*%
%ADD15R,1.800000X1.800000*%
%TD*%
%TA.AperFunction,ComponentPad*%
%ADD16C,1.800000*%
%TD*%
%TA.AperFunction,ComponentPad*%
%ADD17C,2.400000*%
%TD*%
%TA.AperFunction,ComponentPad*%
%ADD18C,3.000000*%
%TD*%
%TA.AperFunction,ComponentPad*%
%ADD19C,3.800000*%
%TD*%
%TA.AperFunction,ComponentPad*%
%ADD20RoundRect,0.249999X0.850001X-0.850001X0.850001X0.850001X-0.850001X0.850001X-0.850001X-0.850001X0*%
%TD*%
%TA.AperFunction,ComponentPad*%
%ADD21C,2.200000*%
%TD*%
%TA.AperFunction,ComponentPad*%
%ADD22RoundRect,0.250000X-0.550000X0.550000X-0.550000X-0.550000X0.550000X-0.550000X0.550000X0.550000X0*%
%TD*%
%TA.AperFunction,ComponentPad*%
%ADD23RoundRect,0.250000X-0.550000X-0.550000X0.550000X-0.550000X0.550000X0.550000X-0.550000X0.550000X0*%
%TD*%
%TA.AperFunction,ComponentPad*%
%ADD24RoundRect,0.250000X0.550000X-0.550000X0.550000X0.550000X-0.550000X0.550000X-0.550000X-0.550000X0*%
%TD*%
%TA.AperFunction,ComponentPad*%
%ADD25R,4.600000X2.000000*%
%TD*%
%TA.AperFunction,ComponentPad*%
%ADD26O,4.200000X2.000000*%
%TD*%
%TA.AperFunction,ComponentPad*%
%ADD27O,2.000000X4.200000*%
%TD*%
%TA.AperFunction,Conductor*%
%ADD28C,0.609600*%
%TD*%
%TA.AperFunction,Conductor*%
%ADD29C,0.355600*%
%TD*%
%TA.AperFunction,Conductor*%
%ADD30C,0.812800*%
%TD*%
G04 APERTURE END LIST*
D10*
%TO.P,C6,2*%
%TO.N,Net-(C6-Pad2)*%
X139000000Y-129000000D03*
%TO.P,C6,1*%
%TO.N,/OPAMPOUT*%
X139000000Y-131000000D03*
%TD*%
D11*
%TO.P,R7,2*%
%TO.N,/INV*%
X125240916Y-122675303D03*
%TO.P,R7,1*%
%TO.N,/OPAMPOUT*%
X132860916Y-122675303D03*
%TD*%
D12*
%TO.P,C4,2*%
%TO.N,/CIRCIN*%
X112737223Y-122680975D03*
%TO.P,C4,1*%
%TO.N,Net-(C4-Pad1)*%
X120237223Y-122680975D03*
%TD*%
D13*
%TO.P,SW1,1,1_1*%
%TO.N,/CIRCOUT*%
X135800000Y-152800000D03*
D14*
%TO.P,SW1,2,2_2*%
%TO.N,/OUT_TIP*%
X135800000Y-148000000D03*
%TO.P,SW1,3,3_3*%
%TO.N,Net-(SW1-Pad3)*%
X135800000Y-143200000D03*
%TO.P,SW1,4,4_4*%
%TO.N,/CIRCIN*%
X130500000Y-152800000D03*
%TO.P,SW1,5,5_5*%
%TO.N,/INPUT_TIP*%
X130500000Y-148000000D03*
%TO.P,SW1,6,6_6*%
%TO.N,Net-(SW1-Pad3)*%
X130500000Y-143200000D03*
%TO.P,SW1,7,7_7*%
%TO.N,/LEDA*%
X125200000Y-152800000D03*
%TO.P,SW1,8,8_8*%
%TO.N,/PGND*%
X125200000Y-148000000D03*
%TO.P,SW1,9,9_9*%
%TO.N,unconnected-(SW1-Pad9)*%
X125200000Y-143200000D03*
%TD*%
D15*
%TO.P,D4,1,K_1*%
%TO.N,/LEDK*%
X130500000Y-80270000D03*
D16*
%TO.P,D4,2,A_2*%
%TO.N,/9V0*%
X130500000Y-77730000D03*
%TD*%
D11*
%TO.P,R3,1*%
%TO.N,/PGND*%
X132750000Y-104120000D03*
%TO.P,R3,2*%
%TO.N,/VREF*%
X132750000Y-96500000D03*
%TD*%
D17*
%TO.P,RV1,1,1_1*%
%TO.N,/GAIN_CTL*%
X109700000Y-106407500D03*
%TO.P,RV1,2,2_2*%
X114700000Y-106407500D03*
%TO.P,RV1,3,3_3*%
%TO.N,/AGND*%
X119700000Y-106407500D03*
%TD*%
D11*
%TO.P,R4,1*%
%TO.N,Net-(C4-Pad1)*%
X122500000Y-127356200D03*
%TO.P,R4,2*%
%TO.N,/NINV*%
X122500000Y-134976200D03*
%TD*%
D12*
%TO.P,C2,1*%
%TO.N,Net-(D1-K)*%
X126750000Y-93000000D03*
%TO.P,C2,2*%
%TO.N,/PGND*%
X134250000Y-93000000D03*
%TD*%
D18*
%TO.P,J3,S*%
%TO.N,/AGND*%
X139270000Y-63800000D03*
%TO.P,J3,SN*%
%TO.N,unconnected-(J3-PadSN)*%
X150700000Y-63800000D03*
%TO.P,J3,T*%
%TO.N,/OUT_TIP*%
X139270000Y-76500000D03*
%TO.P,J3,TN*%
%TO.N,unconnected-(J3-PadTN)*%
X150700000Y-76500000D03*
%TD*%
D19*
%TO.P,BATT-,1,1_1*%
%TO.N,/BAT_GND*%
X154000000Y-130000000D03*
%TD*%
D20*
%TO.P,D1,1,K_1*%
%TO.N,Net-(D1-K)*%
X123500000Y-85080000D03*
D21*
%TO.P,D1,2,A_2*%
%TO.N,/9V0*%
X123500000Y-74920000D03*
%TD*%
D22*
%TO.P,D3,1,K_1*%
%TO.N,/PRE_VOLUME*%
X144791667Y-117190000D03*
D11*
%TO.P,D3,2,A_2*%
%TO.N,/AGND*%
X144791667Y-124810000D03*
%TD*%
%TO.P,R9,1*%
%TO.N,/LEDK*%
X126690000Y-107500000D03*
%TO.P,R9,2*%
%TO.N,/LEDA*%
X134310000Y-107500000D03*
%TD*%
%TO.P,R1,1*%
%TO.N,/AGND*%
X115355010Y-109690000D03*
%TO.P,R1,2*%
%TO.N,/CIRCIN*%
X115355010Y-117310000D03*
%TD*%
%TO.P,R6,1*%
%TO.N,/NINV*%
X121000000Y-117310000D03*
%TO.P,R6,2*%
%TO.N,/VREF*%
X121000000Y-109690000D03*
%TD*%
D23*
%TO.P,U1,1,NULL_1*%
%TO.N,unconnected-(U1-NULL-Pad1)*%
X126690000Y-127395000D03*
D11*
%TO.P,U1,2,-_2*%
%TO.N,/INV*%
X126690000Y-129935000D03*
%TO.P,U1,3,+_3*%
%TO.N,/NINV*%
X126690000Y-132475000D03*
%TO.P,U1,4,V-_4*%
%TO.N,/PGND*%
X126690000Y-135015000D03*
%TO.P,U1,5,NULL_5*%
%TO.N,unconnected-(U1-NULL-Pad5)*%
X134310000Y-135015000D03*
%TO.P,U1,6*%
%TO.N,/OPAMPOUT*%
X134310000Y-132475000D03*
%TO.P,U1,7,V+_7*%
%TO.N,/9V0*%
X134310000Y-129935000D03*
%TO.P,U1,8,NC_8*%
%TO.N,unconnected-(U1-NC-Pad8)*%
X134310000Y-127395000D03*
%TD*%
%TO.P,C1,1*%
%TO.N,Net-(D1-K)*%
X128751639Y-86500000D03*
%TO.P,C1,2*%
%TO.N,/PGND*%
X132251639Y-86500000D03*
%TD*%
D10*
%TO.P,C3,1*%
%TO.N,/VREF*%
X136000000Y-113000000D03*
%TO.P,C3,2*%
%TO.N,/PGND*%
X138000000Y-113000000D03*
%TD*%
D11*
%TO.P,R2,1*%
%TO.N,/VREF*%
X128250000Y-104120000D03*
%TO.P,R2,2*%
%TO.N,Net-(D1-K)*%
X128250000Y-96500000D03*
%TD*%
%TO.P,R5,1*%
%TO.N,/GAIN_CTL*%
X109710019Y-109673844D03*
%TO.P,R5,2*%
%TO.N,/INV*%
X109710019Y-117293844D03*
%TD*%
D15*
%TO.P,D5,1,K_1*%
%TO.N,/LEDK*%
X129230000Y-112500000D03*
D16*
%TO.P,D5,2,A_2*%
%TO.N,/9V0*%
X131770000Y-112500000D03*
%TD*%
D12*
%TO.P,C7,1*%
%TO.N,/PRE_VOLUME*%
X144658353Y-112146170D03*
%TO.P,C7,2*%
%TO.N,/AGND*%
X152158353Y-112146170D03*
%TD*%
D17*
%TO.P,RV2,1,1_1*%
%TO.N,/PRE_VOLUME*%
X141300000Y-106407500D03*
%TO.P,RV2,2,2_2*%
%TO.N,/CIRCOUT*%
X146300000Y-106407500D03*
%TO.P,RV2,3,3_3*%
%TO.N,/AGND*%
X151300000Y-106407500D03*
%TD*%
D11*
%TO.P,R8,1*%
%TO.N,/PRE_VOLUME*%
X140500000Y-117190000D03*
%TO.P,R8,2*%
%TO.N,Net-(C6-Pad2)*%
X140500000Y-124810000D03*
%TD*%
D24*
%TO.P,D2,1,K_1*%
%TO.N,/AGND*%
X148833333Y-124810000D03*
D11*
%TO.P,D2,2,A_2*%
%TO.N,/PRE_VOLUME*%
X148833333Y-117190000D03*
%TD*%
D18*
%TO.P,J2,S*%
%TO.N,/AGND*%
X107270000Y-63800000D03*
%TO.P,J2,SN*%
%TO.N,unconnected-(J2-PadSN)*%
X118700000Y-63800000D03*
%TO.P,J2,T*%
%TO.N,/INPUT_TIP*%
X107270000Y-76500000D03*
%TO.P,J2,TN*%
%TO.N,/AGND*%
X118700000Y-76500000D03*
%TD*%
D25*
%TO.P,J1,1*%
%TO.N,/9V0*%
X130500000Y-73300000D03*
D26*
%TO.P,J1,2*%
%TO.N,/PGND*%
X130500000Y-67000000D03*
D27*
%TO.P,J1,3*%
%TO.N,/BAT_GND*%
X125700000Y-70400000D03*
%TD*%
D12*
%TO.P,C5,1*%
%TO.N,/OPAMPOUT*%
X132750000Y-118000000D03*
%TO.P,C5,2*%
%TO.N,/INV*%
X125250000Y-118000000D03*
%TD*%
D19*
%TO.P,BATT+,1,1_1*%
%TO.N,/9V0*%
X147500000Y-130000000D03*
%TD*%
%TO.N,/LEDA*%
D28*
X134377956Y-107500000D02*
X134310000Y-107500000D01*
X139500000Y-112622044D02*
X134377956Y-107500000D01*
X139500000Y-114500000D02*
X139500000Y-112622044D01*
X138500000Y-115500000D02*
X139500000Y-114500000D01*
X142500000Y-122500000D02*
X138500000Y-118500000D01*
X142500000Y-132500000D02*
X142500000Y-122500000D01*
X138500000Y-118500000D02*
X138500000Y-115500000D01*
X132000000Y-155500000D02*
X133051350Y-154448650D01*
X127900000Y-155500000D02*
X132000000Y-155500000D01*
X125200000Y-152800000D02*
X127900000Y-155500000D01*
X133051350Y-154448650D02*
X133051350Y-141948650D01*
X133051350Y-141948650D02*
X142500000Y-132500000D01*
%TO.N,/CIRCOUT*%
D29*
X150815549Y-132184451D02*
X150815549Y-114534995D01*
X150815549Y-114534995D02*
X146300000Y-110019447D01*
X146500000Y-136500000D02*
X150815549Y-132184451D01*
X146500000Y-142000000D02*
X146500000Y-136500000D01*
X146300000Y-110019447D02*
X146300000Y-106407500D01*
X135800000Y-152700000D02*
X146500000Y-142000000D01*
X135800000Y-152800000D02*
X135800000Y-152700000D01*
%TO.N,/LEDK*%
D28*
X124335174Y-89164826D02*
X124335174Y-105145174D01*
X126500000Y-87000000D02*
X124335174Y-89164826D01*
X126500000Y-82500000D02*
X126500000Y-87000000D01*
X128730000Y-80270000D02*
X126500000Y-82500000D01*
X124335174Y-105145174D02*
X126690000Y-107500000D01*
X130500000Y-80270000D02*
X128730000Y-80270000D01*
%TO.N,/PRE_VOLUME*%
D29*
X144791667Y-117190000D02*
X140500000Y-117190000D01*
%TO.N,/INPUT_TIP*%
X107000000Y-128500000D02*
X124000000Y-145500000D01*
X109767098Y-93767098D02*
X109767098Y-97732902D01*
X107000000Y-100500000D02*
X107000000Y-128500000D01*
X107270000Y-91270000D02*
X109767098Y-93767098D01*
X109767098Y-97732902D02*
X107000000Y-100500000D01*
X107270000Y-76500000D02*
X107270000Y-91270000D01*
X124000000Y-145500000D02*
X128000000Y-145500000D01*
X128000000Y-145500000D02*
X130500000Y-148000000D01*
%TO.N,/BAT_GND*%
D30*
X141499610Y-70400000D02*
X125700000Y-70400000D01*
X151237816Y-80138206D02*
X141499610Y-70400000D01*
X154000000Y-121500000D02*
X155000000Y-120500000D01*
X151237816Y-97237816D02*
X151237816Y-80138206D01*
X154000000Y-130000000D02*
X154000000Y-121500000D01*
X155000000Y-120500000D02*
X155000000Y-101000000D01*
X155000000Y-101000000D02*
X151237816Y-97237816D01*
%TO.N,/9V0*%
X134435000Y-129935000D02*
X134500000Y-130000000D01*
X134310000Y-129935000D02*
X134435000Y-129935000D01*
X130500000Y-126125000D02*
X134310000Y-129935000D01*
X131770000Y-112730000D02*
X130500000Y-114000000D01*
X131770000Y-112500000D02*
X131770000Y-112730000D01*
X130500000Y-114000000D02*
X130500000Y-126125000D01*
%TO.N,/OPAMPOUT*%
D29*
X132750000Y-118000000D02*
X132750000Y-122564387D01*
%TO.N,/9V0*%
D30*
X132230000Y-77730000D02*
X130500000Y-77730000D01*
X133000000Y-78500000D02*
X132230000Y-77730000D01*
X133000000Y-82500000D02*
X133000000Y-78500000D01*
X130500000Y-105000000D02*
X130500000Y-85000000D01*
X130500000Y-85000000D02*
X133000000Y-82500000D01*
X131770000Y-106270000D02*
X130500000Y-105000000D01*
X131770000Y-112500000D02*
X131770000Y-106270000D01*
%TD*%
M02*
