%TF.GenerationSoftware,KiCad,Pcbnew,10.0.3*%
%TF.CreationDate,2026-06-04T00:53:34-05:00*%
%TF.ProjectId,buffer_overflow,62756666-6572-45f6-9f76-6572666c6f77,v0.41*%
%TF.SameCoordinates,Original*%
%TF.FileFunction,Soldermask,Bot*%
%TF.FilePolarity,Negative*%
%FSLAX46Y46*%
G04 Gerber Fmt 4.6, Leading zero omitted, Abs format (unit mm)*
G04 Created by KiCad (PCBNEW 10.0.3) date 2026-06-04 00:53:34*
%MOMM*%
%LPD*%
G01*
G04 APERTURE LIST*
G04 Aperture macros list*
%AMRoundRect*
0 Rectangle with rounded corners*
0 $1 Rounding radius*
0 $2 $3 $4 $5 $6 $7 $8 $9 X,Y pos of 4 corners*
0 Add a 4 corners polygon primitive as box body*
4,1,4,$2,$3,$4,$5,$6,$7,$8,$9,$2,$3,0*
0 Add four circle primitives for the rounded corners*
1,1,$1+$1,$2,$3*
1,1,$1+$1,$4,$5*
1,1,$1+$1,$6,$7*
1,1,$1+$1,$8,$9*
0 Add four rect primitives between the rounded corners*
20,1,$1+$1,$2,$3,$4,$5,0*
20,1,$1+$1,$4,$5,$6,$7,0*
20,1,$1+$1,$6,$7,$8,$9,0*
20,1,$1+$1,$8,$9,$2,$3,0*%
G04 Aperture macros list end*
%ADD10C,1.200000*%
%ADD11C,1.600000*%
%ADD12C,2.000000*%
%ADD13R,2.600000X2.600000*%
%ADD14C,2.600000*%
%ADD15R,1.800000X1.800000*%
%ADD16C,1.800000*%
%ADD17C,2.400000*%
%ADD18C,7.500000*%
%ADD19C,3.000000*%
%ADD20C,3.800000*%
%ADD21RoundRect,0.249999X0.850001X-0.850001X0.850001X0.850001X-0.850001X0.850001X-0.850001X-0.850001X0*%
%ADD22C,2.200000*%
%ADD23RoundRect,0.250000X-0.550000X0.550000X-0.550000X-0.550000X0.550000X-0.550000X0.550000X0.550000X0*%
%ADD24RoundRect,0.250000X-0.550000X-0.550000X0.550000X-0.550000X0.550000X0.550000X-0.550000X0.550000X0*%
%ADD25C,5.300000*%
%ADD26RoundRect,0.250000X0.550000X-0.550000X0.550000X0.550000X-0.550000X0.550000X-0.550000X-0.550000X0*%
%ADD27R,4.600000X2.000000*%
%ADD28O,4.200000X2.000000*%
%ADD29O,2.000000X4.200000*%
G04 APERTURE END LIST*
D10*
%TO.C,C6*%
X139000000Y-129000000D03*
X139000000Y-131000000D03*
%TD*%
D11*
%TO.C,R7*%
X125240916Y-122675303D03*
X132860916Y-122675303D03*
%TD*%
D12*
%TO.C,C4*%
X112737223Y-122680975D03*
X120237223Y-122680975D03*
%TD*%
D13*
%TO.C,SW1*%
X135800000Y-152800000D03*
D14*
X135800000Y-148000000D03*
X135800000Y-143200000D03*
X130500000Y-152800000D03*
X130500000Y-148000000D03*
X130500000Y-143200000D03*
X125200000Y-152800000D03*
X125200000Y-148000000D03*
X125200000Y-143200000D03*
%TD*%
D15*
%TO.C,D4*%
X130500000Y-80270000D03*
D16*
X130500000Y-77730000D03*
%TD*%
D11*
%TO.C,R3*%
X132750000Y-104120000D03*
X132750000Y-96500000D03*
%TD*%
D17*
%TO.C,RV1*%
X109700000Y-106407500D03*
X114700000Y-106407500D03*
X119700000Y-106407500D03*
D18*
X114700000Y-95507500D03*
D19*
X107200000Y-95507500D03*
X122200000Y-95507500D03*
%TD*%
D11*
%TO.C,R4*%
X122500000Y-127356200D03*
X122500000Y-134976200D03*
%TD*%
D12*
%TO.C,C2*%
X126750000Y-93000000D03*
X134250000Y-93000000D03*
%TD*%
D19*
%TO.C,J3*%
X141400000Y-73350000D03*
D12*
X139270000Y-67000000D03*
X150700000Y-67000000D03*
D19*
X139270000Y-63800000D03*
X150700000Y-63800000D03*
X139270000Y-76500000D03*
X150700000Y-76500000D03*
%TD*%
D20*
%TO.C,BATT-*%
X154000000Y-130000000D03*
%TD*%
D21*
%TO.C,D1*%
X123500000Y-85080000D03*
D22*
X123500000Y-74920000D03*
%TD*%
D23*
%TO.C,D3*%
X144791667Y-117190000D03*
D11*
X144791667Y-124810000D03*
%TD*%
%TO.C,R9*%
X126690000Y-107500000D03*
X134310000Y-107500000D03*
%TD*%
%TO.C,R1*%
X115355010Y-109690000D03*
X115355010Y-117310000D03*
%TD*%
%TO.C,R6*%
X121000000Y-117310000D03*
X121000000Y-109690000D03*
%TD*%
D24*
%TO.C,U1*%
X126690000Y-127395000D03*
D11*
X126690000Y-129935000D03*
X126690000Y-132475000D03*
X126690000Y-135015000D03*
X134310000Y-135015000D03*
X134310000Y-132475000D03*
X134310000Y-129935000D03*
X134310000Y-127395000D03*
%TD*%
%TO.C,C1*%
X128751639Y-86500000D03*
X132251639Y-86500000D03*
%TD*%
D10*
%TO.C,C3*%
X136000000Y-113000000D03*
X138000000Y-113000000D03*
%TD*%
D11*
%TO.C,R2*%
X128250000Y-104120000D03*
X128250000Y-96500000D03*
%TD*%
%TO.C,R5*%
X109710019Y-109673844D03*
X109710019Y-117293844D03*
%TD*%
D15*
%TO.C,D5*%
X129230000Y-112500000D03*
D16*
X131770000Y-112500000D03*
%TD*%
D12*
%TO.C,C7*%
X144658353Y-112146170D03*
X152158353Y-112146170D03*
%TD*%
D25*
%TO.C,H1*%
X150500000Y-138000000D03*
%TD*%
D17*
%TO.C,RV2*%
X141300000Y-106407500D03*
X146300000Y-106407500D03*
X151300000Y-106407500D03*
D18*
X146300000Y-95507500D03*
D19*
X138800000Y-95507500D03*
X153800000Y-95507500D03*
%TD*%
D11*
%TO.C,R8*%
X140500000Y-117190000D03*
X140500000Y-124810000D03*
%TD*%
D26*
%TO.C,D2*%
X148833333Y-124810000D03*
D11*
X148833333Y-117190000D03*
%TD*%
D19*
%TO.C,J2*%
X109400000Y-73350000D03*
D12*
X107270000Y-67000000D03*
X118700000Y-67000000D03*
D19*
X107270000Y-63800000D03*
X118700000Y-63800000D03*
X107270000Y-76500000D03*
X118700000Y-76500000D03*
%TD*%
D27*
%TO.C,J1*%
X130500000Y-73300000D03*
D28*
X130500000Y-67000000D03*
D29*
X125700000Y-70400000D03*
%TD*%
D12*
%TO.C,C5*%
X132750000Y-118000000D03*
X125250000Y-118000000D03*
%TD*%
D20*
%TO.C,BATT+*%
X147500000Y-130000000D03*
%TD*%
M02*
