M48
; DRILL file KiCad 10.0.3 date 2026-06-04T18:11:32
; FORMAT={-:-/ absolute / metric / decimal}
; #@! TF.CreationDate,2026-06-04T18:11:32-05:00
; #@! TF.GenerationSoftware,Kicad,Pcbnew,10.0.3
; #@! TF.FileFunction,Plated,1,2,PTH
FMAT,2
METRIC
; #@! TA.AperFunction,Plated,PTH,ComponentDrill
T1C0.600
; #@! TA.AperFunction,Plated,PTH,ComponentDrill
T2C0.750
; #@! TA.AperFunction,Plated,PTH,ComponentDrill
T3C0.800
; #@! TA.AperFunction,Plated,PTH,ComponentDrill
T4C0.900
; #@! TA.AperFunction,Plated,PTH,ComponentDrill
T5C1.000
; #@! TA.AperFunction,Plated,PTH,ComponentDrill
T6C1.100
; #@! TA.AperFunction,Plated,PTH,ComponentDrill
T7C1.400
; #@! TA.AperFunction,Plated,PTH,ComponentDrill
T8C1.500
; #@! TA.AperFunction,Plated,PTH,ComponentDrill
T9C2.200
%
G90
G05
T1
X136.0Y-113.0
X138.0Y-113.0
T2
X115.4Y-121.925
X120.4Y-121.925
X127.975Y-91.95
X132.975Y-91.95
X144.4Y-112.85
X149.4Y-112.85
T3
X109.71Y-109.674
X109.71Y-117.294
X115.355Y-109.69
X115.355Y-117.31
X121.0Y-109.69
X121.0Y-117.31
X122.95Y-126.765
X122.95Y-134.385
X125.241Y-122.675
X126.69Y-107.5
X126.69Y-127.395
X126.69Y-129.935
X126.69Y-132.475
X126.69Y-135.015
X128.25Y-96.5
X128.25Y-104.12
X129.293Y-85.025
X130.375Y-118.85
X131.793Y-85.025
X132.75Y-96.5
X132.75Y-104.12
X132.861Y-122.675
X132.875Y-118.85
X134.31Y-107.5
X134.31Y-127.395
X134.31Y-129.935
X134.31Y-132.475
X134.31Y-135.015
X139.0Y-128.5
X139.0Y-131.0
X140.5Y-117.19
X140.5Y-124.81
X144.792Y-117.19
X144.792Y-124.81
X148.833Y-117.19
X148.833Y-124.81
T4
X129.23Y-112.5
X130.523Y-76.68
X130.523Y-79.22
X131.77Y-112.5
T6
X123.5Y-74.92
X123.5Y-85.08
T7
X109.7Y-106.407
X114.7Y-106.407
X119.7Y-106.407
X141.3Y-106.407
X146.3Y-106.407
X151.3Y-106.407
T8
X107.27Y-63.8
X107.27Y-76.5
X118.7Y-63.8
X118.7Y-76.5
X125.2Y-143.2
X125.2Y-148.0
X125.2Y-152.8
X130.5Y-143.2
X130.5Y-148.0
X130.5Y-152.8
X135.8Y-143.2
X135.8Y-148.0
X135.8Y-152.8
X139.27Y-63.8
X139.27Y-76.5
X150.7Y-63.8
X150.7Y-76.5
T9
X146.7Y-130.075
X153.45Y-130.075
T5
G00X125.7Y-71.5
M15
G01X125.7Y-69.3
M16
G05
G00X131.6Y-67.0
M15
G01X129.4Y-67.0
M16
G05
G00X131.8Y-73.3
M15
G01X129.2Y-73.3
M16
G05
M30
