%TF.GenerationSoftware,KiCad,Pcbnew,10.0.3*%
%TF.CreationDate,2026-06-04T18:11:33-05:00*%
%TF.ProjectId,dod250new,646f6432-3530-46e6-9577-2e6b69636164,v0.41*%
%TF.SameCoordinates,Original*%
%TF.FileFunction,Copper,L1,Top*%
%TF.FilePolarity,Positive*%
%FSLAX46Y46*%
G04 Gerber Fmt 4.6, Leading zero omitted, Abs format (unit mm)*
G04 Created by KiCad (PCBNEW 10.0.3) date 2026-06-04 18:11:33*
%MOMM*%
%LPD*%
G01*
G04 APERTURE LIST*
G04 Aperture macros list*
%AMRoundRect*
0 Rectangle with rounded corners*
0 $1 Rounding radius*
0 $2 $3 $4 $5 $6 $7 $8 $9 X,Y pos of 4 corners*
0 Add a 4 corners polygon primitive as box body*
4,1,4,$2,$3,$4,$5,$6,$7,$8,$9,$2,$3,0*
0 Add four circle primitives for the rounded corners*
1,1,$1+$1,$2,$3*
1,1,$1+$1,$4,$5*
1,1,$1+$1,$6,$7*
1,1,$1+$1,$8,$9*
0 Add four rect primitives between the rounded corners*
20,1,$1+$1,$2,$3,$4,$5,0*
20,1,$1+$1,$4,$5,$6,$7,0*
20,1,$1+$1,$6,$7,$8,$9,0*
20,1,$1+$1,$8,$9,$2,$3,0*%
G04 Aperture macros list end*
%TA.AperFunction,ComponentPad*%
%ADD10C,1.500000*%
%TD*%
%TA.AperFunction,ComponentPad*%
%ADD11RoundRect,0.250000X0.550000X-0.550000X0.550000X0.550000X-0.550000X0.550000X-0.550000X-0.550000X0*%
%TD*%
%TA.AperFunction,ComponentPad*%
%ADD12C,1.600000*%
%TD*%
%TA.AperFunction,ComponentPad*%
%ADD13RoundRect,0.250000X-0.550000X-0.550000X0.550000X-0.550000X0.550000X0.550000X-0.550000X0.550000X0*%
%TD*%
%TA.AperFunction,ComponentPad*%
%ADD14R,2.600000X2.600000*%
%TD*%
%TA.AperFunction,ComponentPad*%
%ADD15C,2.600000*%
%TD*%
%TA.AperFunction,ComponentPad*%
%ADD16C,3.000000*%
%TD*%
%TA.AperFunction,ComponentPad*%
%ADD17C,2.400000*%
%TD*%
%TA.AperFunction,ComponentPad*%
%ADD18C,1.800000*%
%TD*%
%TA.AperFunction,ComponentPad*%
%ADD19R,1.800000X1.800000*%
%TD*%
%TA.AperFunction,ComponentPad*%
%ADD20RoundRect,0.249999X0.850001X-0.850001X0.850001X0.850001X-0.850001X0.850001X-0.850001X-0.850001X0*%
%TD*%
%TA.AperFunction,ComponentPad*%
%ADD21C,2.200000*%
%TD*%
%TA.AperFunction,ComponentPad*%
%ADD22RoundRect,0.250000X-0.550000X0.550000X-0.550000X-0.550000X0.550000X-0.550000X0.550000X0.550000X0*%
%TD*%
%TA.AperFunction,ComponentPad*%
%ADD23C,1.200000*%
%TD*%
%TA.AperFunction,ComponentPad*%
%ADD24R,4.600000X2.000000*%
%TD*%
%TA.AperFunction,ComponentPad*%
%ADD25O,4.200000X2.000000*%
%TD*%
%TA.AperFunction,ComponentPad*%
%ADD26O,2.000000X4.200000*%
%TD*%
%TA.AperFunction,ComponentPad*%
%ADD27C,3.800000*%
%TD*%
%TA.AperFunction,Conductor*%
%ADD28C,0.812800*%
%TD*%
%TA.AperFunction,Conductor*%
%ADD29C,0.355600*%
%TD*%
%TA.AperFunction,Conductor*%
%ADD30C,0.609600*%
%TD*%
G04 APERTURE END LIST*
D10*
%TO.P,C7,1*%
%TO.N,/PRE_VOLUME*%
X144400000Y-112850000D03*
%TO.P,C7,2*%
%TO.N,/AGND*%
X149400000Y-112850000D03*
%TD*%
D11*
%TO.P,C6,1*%
%TO.N,/OPAMPOUT*%
X139000000Y-131000000D03*
D12*
%TO.P,C6,2*%
%TO.N,Net-(C6-Pad2)*%
X139000000Y-128500000D03*
%TD*%
%TO.P,C1,2*%
%TO.N,/PGND*%
X131792621Y-85025000D03*
D13*
%TO.P,C1,1*%
%TO.N,/9V0*%
X129292621Y-85025000D03*
%TD*%
D12*
%TO.P,C5,1*%
%TO.N,/OPAMPOUT*%
X132875000Y-118850000D03*
%TO.P,C5,2*%
%TO.N,/INV*%
X130375000Y-118850000D03*
%TD*%
D10*
%TO.P,C4,1*%
%TO.N,Net-(C4-Pad1)*%
X120400000Y-121925000D03*
%TO.P,C4,2*%
%TO.N,/CIRCIN*%
X115400000Y-121925000D03*
%TD*%
%TO.P,C2,1*%
%TO.N,/9V0*%
X127975000Y-91950000D03*
%TO.P,C2,2*%
%TO.N,/PGND*%
X132975000Y-91950000D03*
%TD*%
D14*
%TO.P,SW1,1,1_1*%
%TO.N,/CIRCOUT*%
X135800000Y-152800000D03*
D15*
%TO.P,SW1,2,2_2*%
%TO.N,/OUT_TIP*%
X135800000Y-148000000D03*
%TO.P,SW1,3,3_3*%
%TO.N,Net-(SW1-Pad3)*%
X135800000Y-143200000D03*
%TO.P,SW1,4,4_4*%
%TO.N,/CIRCIN*%
X130500000Y-152800000D03*
%TO.P,SW1,5,5_5*%
%TO.N,/INPUT_TIP*%
X130500000Y-148000000D03*
%TO.P,SW1,6,6_6*%
%TO.N,Net-(SW1-Pad3)*%
X130500000Y-143200000D03*
%TO.P,SW1,7,7_7*%
%TO.N,/LEDA*%
X125200000Y-152800000D03*
%TO.P,SW1,8,8_8*%
%TO.N,/PGND*%
X125200000Y-148000000D03*
%TO.P,SW1,9,9_9*%
%TO.N,unconnected-(SW1-Pad9)*%
X125200000Y-143200000D03*
%TD*%
D16*
%TO.P,J2,TN*%
%TO.N,/AGND*%
X118700000Y-76500000D03*
%TO.P,J2,T*%
%TO.N,/INPUT_TIP*%
X107270000Y-76500000D03*
%TO.P,J2,SN*%
%TO.N,unconnected-(J2-PadSN)*%
X118700000Y-63800000D03*
%TO.P,J2,S*%
%TO.N,/AGND*%
X107270000Y-63800000D03*
%TD*%
%TO.P,J3,TN*%
%TO.N,unconnected-(J3-PadTN)*%
X150700000Y-76500000D03*
%TO.P,J3,T*%
%TO.N,/OUT_TIP*%
X139270000Y-76500000D03*
%TO.P,J3,SN*%
%TO.N,unconnected-(J3-PadSN)*%
X150700000Y-63800000D03*
%TO.P,J3,S*%
%TO.N,/AGND*%
X139270000Y-63800000D03*
%TD*%
D17*
%TO.P,RV1,3,3_3*%
%TO.N,/AGND*%
X119700000Y-106407500D03*
%TO.P,RV1,2,2_2*%
%TO.N,/GAIN_CTL*%
X114700000Y-106407500D03*
%TO.P,RV1,1,1_1*%
X109700000Y-106407500D03*
%TD*%
%TO.P,RV2,3,3_3*%
%TO.N,/AGND*%
X151300000Y-106407500D03*
%TO.P,RV2,2,2_2*%
%TO.N,/CIRCOUT*%
X146300000Y-106407500D03*
%TO.P,RV2,1,1_1*%
%TO.N,/PRE_VOLUME*%
X141300000Y-106407500D03*
%TD*%
D18*
%TO.P,D4,2,A_2*%
%TO.N,/9V0*%
X130523361Y-76680000D03*
D19*
%TO.P,D4,1,K_1*%
%TO.N,/LEDK*%
X130523361Y-79220000D03*
%TD*%
D12*
%TO.P,U1,8,NC_8*%
%TO.N,unconnected-(U1-NC-Pad8)*%
X134310000Y-127395000D03*
%TO.P,U1,7,V+_7*%
%TO.N,/9V0*%
X134310000Y-129935000D03*
%TO.P,U1,6*%
%TO.N,/OPAMPOUT*%
X134310000Y-132475000D03*
%TO.P,U1,5,NULL_5*%
%TO.N,unconnected-(U1-NULL-Pad5)*%
X134310000Y-135015000D03*
%TO.P,U1,4,V-_4*%
%TO.N,/PGND*%
X126690000Y-135015000D03*
%TO.P,U1,3,+_3*%
%TO.N,/NINV*%
X126690000Y-132475000D03*
%TO.P,U1,2,-_2*%
%TO.N,/INV*%
X126690000Y-129935000D03*
D13*
%TO.P,U1,1,NULL_1*%
%TO.N,unconnected-(U1-NULL-Pad1)*%
X126690000Y-127395000D03*
%TD*%
D18*
%TO.P,D5,2,A_2*%
%TO.N,/9V0*%
X131770000Y-112500000D03*
D19*
%TO.P,D5,1,K_1*%
%TO.N,/LEDK*%
X129230000Y-112500000D03*
%TD*%
D12*
%TO.P,R3,1*%
%TO.N,/PGND*%
X132750000Y-104120000D03*
%TO.P,R3,2*%
%TO.N,/VREF*%
X132750000Y-96500000D03*
%TD*%
%TO.P,R4,1*%
%TO.N,Net-(C4-Pad1)*%
X122950000Y-126765000D03*
%TO.P,R4,2*%
%TO.N,/NINV*%
X122950000Y-134385000D03*
%TD*%
D20*
%TO.P,D1,1,K_1*%
%TO.N,/9V0*%
X123500000Y-85080000D03*
D21*
%TO.P,D1,2,A_2*%
%TO.N,/9V0_RAW*%
X123500000Y-74920000D03*
%TD*%
D12*
%TO.P,R7,1*%
%TO.N,/OPAMPOUT*%
X132860916Y-122675303D03*
%TO.P,R7,2*%
%TO.N,/INV*%
X125240916Y-122675303D03*
%TD*%
D22*
%TO.P,D3,1,K_1*%
%TO.N,/PRE_VOLUME*%
X144791667Y-117190000D03*
D12*
%TO.P,D3,2,A_2*%
%TO.N,/AGND*%
X144791667Y-124810000D03*
%TD*%
%TO.P,R9,1*%
%TO.N,/LEDK*%
X126690000Y-107500000D03*
%TO.P,R9,2*%
%TO.N,/LEDA*%
X134310000Y-107500000D03*
%TD*%
%TO.P,R1,1*%
%TO.N,/AGND*%
X115355010Y-109690000D03*
%TO.P,R1,2*%
%TO.N,/CIRCIN*%
X115355010Y-117310000D03*
%TD*%
%TO.P,R6,1*%
%TO.N,/NINV*%
X121000000Y-117310000D03*
%TO.P,R6,2*%
%TO.N,/VREF*%
X121000000Y-109690000D03*
%TD*%
D23*
%TO.P,C3,1*%
%TO.N,/VREF*%
X136000000Y-113000000D03*
%TO.P,C3,2*%
%TO.N,/PGND*%
X138000000Y-113000000D03*
%TD*%
D12*
%TO.P,R2,1*%
%TO.N,/VREF*%
X128250000Y-104120000D03*
%TO.P,R2,2*%
%TO.N,/9V0*%
X128250000Y-96500000D03*
%TD*%
%TO.P,R5,1*%
%TO.N,/GAIN_CTL*%
X109710019Y-109673844D03*
%TO.P,R5,2*%
%TO.N,/INV*%
X109710019Y-117293844D03*
%TD*%
%TO.P,R8,1*%
%TO.N,/PRE_VOLUME*%
X140500000Y-117190000D03*
%TO.P,R8,2*%
%TO.N,Net-(C6-Pad2)*%
X140500000Y-124810000D03*
%TD*%
D11*
%TO.P,D2,1,K_1*%
%TO.N,/AGND*%
X148833333Y-124810000D03*
D12*
%TO.P,D2,2,A_2*%
%TO.N,/PRE_VOLUME*%
X148833333Y-117190000D03*
%TD*%
D24*
%TO.P,J1,1*%
%TO.N,/9V0_RAW*%
X130500000Y-73300000D03*
D25*
%TO.P,J1,2*%
%TO.N,/PGND*%
X130500000Y-67000000D03*
D26*
%TO.P,J1,3*%
%TO.N,/BAT_GND*%
X125700000Y-70400000D03*
%TD*%
D27*
%TO.P,H3,1,1_1*%
%TO.N,/BAT_GND*%
X153450000Y-130075000D03*
%TD*%
%TO.P,H2,1,1_1*%
%TO.N,/9V0_RAW*%
X146700000Y-130075000D03*
%TD*%
%TO.N,/9V0*%
D28*
X128350000Y-123975000D02*
X134310000Y-129935000D01*
X128350000Y-116150000D02*
X128350000Y-123975000D01*
X131770000Y-112730000D02*
X128350000Y-116150000D01*
X131770000Y-112500000D02*
X131770000Y-112730000D01*
%TO.N,/OPAMPOUT*%
D29*
X132875000Y-122661219D02*
X132860916Y-122675303D01*
X132875000Y-118850000D02*
X132875000Y-122661219D01*
%TO.N,/CIRCIN*%
X115355010Y-117310000D02*
X115355010Y-121880010D01*
%TO.N,/AGND*%
D28*
X152158353Y-115608353D02*
X149400000Y-112850000D01*
X152158353Y-118341647D02*
X152158353Y-115608353D01*
%TO.N,/9V0*%
X129292621Y-86542621D02*
X129292621Y-85025000D01*
X130500000Y-105000000D02*
X130500000Y-87750000D01*
X131770000Y-106270000D02*
X130500000Y-105000000D01*
X131770000Y-112500000D02*
X131770000Y-106270000D01*
X130500000Y-87750000D02*
X129292621Y-86542621D01*
%TO.N,/LEDK*%
D30*
X130175000Y-82150000D02*
X128800000Y-82150000D01*
X130500000Y-81825000D02*
X130175000Y-82150000D01*
X124475000Y-105285000D02*
X126690000Y-107500000D01*
X124475000Y-90700000D02*
X124475000Y-105285000D01*
X128800000Y-82150000D02*
X126500000Y-84450000D01*
X130500000Y-80270000D02*
X130500000Y-81825000D01*
X126500000Y-84450000D02*
X126500000Y-88675000D01*
X126500000Y-88675000D02*
X124475000Y-90700000D01*
%TO.N,/BAT_GND*%
D28*
X155000000Y-120500000D02*
X153450000Y-122050000D01*
X155000000Y-101000000D02*
X155000000Y-120500000D01*
X151237816Y-97237816D02*
X155000000Y-101000000D01*
X151237816Y-80138206D02*
X151237816Y-97237816D01*
X141499610Y-70400000D02*
X151237816Y-80138206D01*
X153450000Y-122050000D02*
X153450000Y-130075000D01*
X125700000Y-70400000D02*
X141499610Y-70400000D01*
%TO.N,/INPUT_TIP*%
D29*
X107000000Y-128500000D02*
X124000000Y-145500000D01*
X128000000Y-145500000D02*
X130500000Y-148000000D01*
X107000000Y-99975000D02*
X107000000Y-128500000D01*
X109767098Y-97207902D02*
X107000000Y-99975000D01*
X109767098Y-93767098D02*
X109767098Y-97207902D01*
X124000000Y-145500000D02*
X128000000Y-145500000D01*
X107270000Y-91270000D02*
X109767098Y-93767098D01*
X107270000Y-76500000D02*
X107270000Y-91270000D01*
%TO.N,/NINV*%
X123000000Y-120925000D02*
X121000000Y-118925000D01*
X121000000Y-118925000D02*
X121000000Y-117310000D01*
X123000000Y-123925000D02*
X123000000Y-120925000D01*
X124860000Y-125785000D02*
X123000000Y-123925000D01*
X124860000Y-132475000D02*
X124860000Y-125785000D01*
X124860000Y-132475000D02*
X122950000Y-134385000D01*
X126690000Y-132475000D02*
X124860000Y-132475000D01*
%TO.N,/9V0*%
D28*
X134310000Y-129935000D02*
X134435000Y-129935000D01*
X134435000Y-129935000D02*
X134500000Y-130000000D01*
%TO.N,/9V0_RAW*%
X133650000Y-73300000D02*
X130500000Y-73300000D01*
X134875000Y-74525000D02*
X133650000Y-73300000D01*
X134875000Y-77100000D02*
X134875000Y-74525000D01*
X141475000Y-83700000D02*
X134875000Y-77100000D01*
X141475000Y-97850000D02*
X141475000Y-83700000D01*
X137950000Y-101375000D02*
X141475000Y-97850000D01*
X137950000Y-107200000D02*
X137950000Y-101375000D01*
X141800000Y-111050000D02*
X137950000Y-107200000D01*
X141800000Y-113625000D02*
X141800000Y-111050000D01*
X143050000Y-114875000D02*
X141800000Y-113625000D01*
X146050000Y-114875000D02*
X143050000Y-114875000D01*
X146700000Y-115525000D02*
X146050000Y-114875000D01*
X146700000Y-130075000D02*
X146700000Y-115525000D01*
%TO.N,/AGND*%
X152158353Y-118341647D02*
X148833333Y-121666667D01*
X148833333Y-121666667D02*
X148833333Y-124810000D01*
%TO.N,/LEDA*%
D30*
X132000000Y-155500000D02*
X133051350Y-154448650D01*
X138500000Y-115500000D02*
X139500000Y-114500000D01*
X142500000Y-132500000D02*
X142500000Y-122500000D01*
X139500000Y-112622044D02*
X134377956Y-107500000D01*
X139500000Y-114500000D02*
X139500000Y-112622044D01*
X127900000Y-155500000D02*
X132000000Y-155500000D01*
X138500000Y-118500000D02*
X138500000Y-115500000D01*
X142500000Y-122500000D02*
X138500000Y-118500000D01*
X133051350Y-154448650D02*
X133051350Y-141948650D01*
X133051350Y-141948650D02*
X142500000Y-132500000D01*
X134377956Y-107500000D02*
X134310000Y-107500000D01*
X125200000Y-152800000D02*
X127900000Y-155500000D01*
%TO.N,/PRE_VOLUME*%
D29*
X144791667Y-117190000D02*
X140500000Y-117190000D01*
%TD*%
M02*
